<?xml version="1.0" standalone="no"?>
<!DOCTYPE svg PUBLIC "-//W3C//DTD SVG 1.1//EN" "http://www.w3.org/Graphics/SVG/1.1/DTD/svg11.dtd">
<svg xmlns="http://www.w3.org/2000/svg">
<defs >
<font id="KaiseiDecol" horiz-adv-x="969" ><font-face
    font-family="Kaisei Decol"
    units-per-em="1000"
    panose-1="0 0 0 0 0 0 0 0 0 0"
    ascent="1160"
    descent="-288"
    alphabetic="0" />
<glyph unicode=" " glyph-name="space" horiz-adv-x="250" />
<glyph unicode="!" glyph-name="exclam" horiz-adv-x="400" d="M278 50Q278 19 255 -3T200 -25Q169 -25 146 -3T122 50Q122 82 145 103T200 124Q231 124 254 103T278 50ZM281 690Q281 670 278 650T272 610Q258 504 245 398T217 185H182Q174 292 161 398T130 610Q127
630 124 650T120 690Q120 720 146 737T200 755Q217 755 236 747T268 724T281 690Z" />
<glyph unicode="&quot;" glyph-name="quotedbl" horiz-adv-x="390" d="M169 736Q169 702 165 667T155 596Q152 577 149 552T141 508Q140 503 134 493T121 483Q111 483 107 491T101 508Q96 533 93 558T86 608Q82 640 78 672T73 736Q73 758 86 769T121 781Q140 781
154 768T169 736ZM317 736Q317 704 313 671T304 605Q301 581 298 556T289 508Q288 501 284 492T269 483Q259 483 255 491T249 508Q244 533 241 558T234 608Q230 640 226 672T221 736Q221 758 234 769T269 781Q288 781 302 768T317 736Z" />
<glyph unicode="#" glyph-name="numbersign" horiz-adv-x="780" d="M491 488H326L296 323H461L491 488ZM708 569L692 488H550L520 323H666L650 241H506L461 -15H401L447 241H282L235 -15H176L225 241H72L88 323H239L268 488H114L130 569H282L317 769H376L341 569H504L540
769H598L564 569H708Z" />
<glyph unicode="$" glyph-name="dollar" horiz-adv-x="700" d="M472 169Q472 218 445 248T378 301V36Q425 55 448 86T472 169ZM312 687Q267 673 246 645T224 569Q224 525 251 497T312 447V687ZM601 182Q601 118 569 79T485 19T378 -7V-82H312V-10Q284 -8 257 -5T204
9Q183 17 163 26T121 41Q116 79 108 116T99 191Q99 202 106 206T122 210Q140 210 152 205T170 182Q174 171 176 159T182 135Q198 85 229 61T312 29V337Q282 352 247 370T179 411T127 464T106 534Q106 594 135 633T212 693T312 719V786H378V718Q404 716 427 708T475
690Q492 684 509 682T546 677Q549 648 551 618T560 558Q561 554 562 551T563 543Q563 527 547 522T519 516Q509 516 501 518T488 530Q485 543 483 556T477 583Q467 620 440 645T378 684V412Q417 394 456 375T529 330T581 269T601 182Z" />
<glyph unicode="%" glyph-name="percent" horiz-adv-x="886" d="M307 537Q307 557 306 585T299 642T277 690T233 709Q205 709 190 690T167 643T159 586T157 537Q157 520 160 493T171 439T194 394T233 376Q262 376 277 393T298 437T306 490T307 537ZM727 186Q727
206 726 234T718 290T695 336T650 355Q622 355 607 336T585 289T577 232T576 183Q576 166 579 140T590 86T612 41T650 23Q679 23 695 40T717 84T725 137T727 186ZM417 537Q417 489 392 445T325 372T233 343Q181 343 140 370T74 442T50 537Q50 573 64 609T103 674T161
722T233 740Q289 740 330 712T394 637T417 537ZM775 716L148 -19L113 7L740 743L775 716ZM836 183Q836 135 810 91T742 19T650 -9Q598 -9 557 18T493 89T469 183Q469 219 483 254T522 320T580 368T650 386Q707 386 748 358T813 283T836 183Z" />
<glyph unicode="&amp;" glyph-name="ampersand" horiz-adv-x="758" d="M445 79Q400 108 355 156T275 260T220 365Q195 334 179 292T163 209Q163 165 180 127T229 66T309 43Q347 43 380 49T445 79ZM391 637Q391 655 379 675T346 696Q318 696 299 680T271 640T262
590Q262 531 289 477Q311 496 334 521T374 577T391 637ZM766 53Q766 30 748 15T705 -6T661 -13Q615 -13 568 4T486 52Q437 18 382 5T268 -8Q212 -8 161 13T78 76T46 179Q46 228 66 271T120 351T192 414Q179 447 170 482T161 554Q161 584 172 612T202 665Q232 701
275 717T365 733Q397 733 428 721T479 685T499 624Q499 585 476 555T419 503T355 463Q342 456 330 448T307 431Q327 383 358 330T426 228T503 143Q522 174 527 211T533 283Q533 296 529 318T515 358T489 377Q485 377 481 377T472 376Q463 376 463 383Q463 393 466
405T483 417Q515 417 547 419T610 429Q634 435 655 450Q661 455 673 469T698 495T716 507Q736 507 736 488Q736 484 730 467T716 434T705 412Q700 404 697 401T684 394Q679 393 669 393T653 393Q625 393 598 391T542 387Q561 382 580 367T613 331T627 289Q627 232
610 187T551 102Q581 77 624 57T707 37Q723 37 737 42T766 53Z" />
<glyph unicode="&apos;" glyph-name="quotesingle" horiz-adv-x="280" d="M190 734Q190 712 185 680T177 625Q173 595 169 564T159 503Q157 496 153 488T139 479Q129 479 125 487T119 503Q112 534 108 567T100 631Q99 647 97 662T93 693Q92 703 90 713T88 734Q88
757 103 768T140 780Q160 780 175 768T190 734Z" />
<glyph unicode="(" glyph-name="parenleft" horiz-adv-x="450" d="M409 -114Q269 -35 199 87T128 369Q128 536 198 662T409 876L423 848Q403 832 386 813T355 774Q316 717 294 649T262 510T252 369Q252 312 260 248T287 121T340 4T423 -86L409 -114Z" />
<glyph unicode=")" glyph-name="parenright" horiz-adv-x="450" d="M327 369Q327 209 257 87T46 -114L32 -86Q82 -51 114 3T166 120T194 247T202 369Q202 439 193 511T160 652T96 779Q83 798 67 816T32 848L46 876Q186 788 256 662T327 369Z" />
<glyph unicode="*" glyph-name="asterisk" horiz-adv-x="450" d="M396 534Q396 518 384 505T355 491Q345 491 333 496Q330 498 316 512T284 545T250 580T228 602Q231 593 237 572T250 526T262 482T267 457Q267 439 255 428T225 417Q208 417 196 428T184 457Q184
461 189 480T200 525T213 571T221 601Q214 594 200 578T168 545T137 513T117 496Q108 490 95 490Q79 490 67 504T55 534Q55 545 61 553T76 567Q79 569 98 574T142 586T188 598T218 606Q211 608 189 614T140 628T94 641T71 648Q54 658 54 677Q54 694 68 708T100
723Q108 723 115 717Q124 710 132 701T149 684Q185 647 222 611Q219 623 213 644T201 690T189 734T184 761Q184 779 197 787T225 795Q239 795 253 786T267 761Q267 755 262 736T250 691T237 644T228 612Q235 618 251 634T286 670T320 703T339 719Q347 724 356 724Q374
724 384 709T394 677Q394 667 391 659T376 647Q366 643 354 640T331 634Q306 627 282 621T232 606Q241 603 262 598T308 587T351 576T375 567Q396 557 396 534Z" />
<glyph unicode="+" glyph-name="plus" horiz-adv-x="750" d="M679 333H405V64H345V333H72V392H345V654H405V392H679V333Z" />
<glyph unicode="," glyph-name="comma" horiz-adv-x="350" d="M252 52Q252 23 239 -13T206 -83T165 -138L140 -130Q157 -101 171 -61T186 13Q175 6 161 6Q137 6 119 25T100 69Q100 103 120 123T174 144Q216 144 234 117T252 52Z" />
<glyph unicode="-" glyph-name="hyphen" horiz-adv-x="400" d="M332 283H69V360H332V283Z" />
<glyph unicode="." glyph-name="period" horiz-adv-x="350" d="M251 82Q251 51 229 28T175 5Q144 5 122 28T99 82Q99 114 121 136T175 159Q207 159 229 137T251 82Z" />
<glyph unicode="/" glyph-name="slash" horiz-adv-x="500" d="M464 814L82 -90L36 -67L418 837L464 814Z" />
<glyph unicode="0" glyph-name="zero" horiz-adv-x="590" d="M403 357Q403 410 401 464T390 571Q386 597 376 626T346 677T294 698Q260 698 240 670T208 598T192 506T186 415T185 350Q185 328 185 289T190 206T204 121T235 54T288 28Q323 28 342 46T372 93T388
149Q399 201 401 253T403 357ZM539 365Q539 304 527 240T485 120T406 31T282 -3Q214 -3 169 30T98 116T62 229T51 345Q51 393 58 446T81 549T127 639T199 704T303 728Q362 728 403 706T470 645T512 560T533 463T539 365Z" />
<glyph unicode="1" glyph-name="one" horiz-adv-x="590" d="M490 14Q490 7 486 1T475 -5Q462 -5 448 -4T420 -2Q397 0 373 0T325 0Q268 0 211 -3Q201 -4 191 -4T171 -5Q152 -5 152 15Q152 23 159 28T173 33Q183 33 192 32T212 31Q226 31 239 34T252 56Q252 206
253 356T254 656Q247 653 228 647T186 633T146 620T124 614Q114 614 107 619T100 635Q100 645 102 651T115 661Q125 665 135 667T155 672Q178 678 200 684T244 698Q250 700 270 707T313 722T353 736T373 742Q383 742 389 739T396 724Q396 558 395 391T393 57Q393
47 401 39T419 31Q433 31 447 32T475 33Q482 33 486 27T490 14Z" />
<glyph unicode="2" glyph-name="two" horiz-adv-x="590" d="M545 170Q545 167 540 146T529 97T516 47T508 18Q504 5 498 3T479 0Q449 0 420 2T361 4Q335 4 308 4T255 3Q203 3 151 3T45 0Q47 53 66 90T118 168Q158 219 204 264T294 357Q332 396 355 443T379 546Q379
566 376 590T363 638T337 677T294 692Q265 692 242 677T204 636Q191 614 187 583T182 525Q182 511 169 503T138 491T110 487Q91 487 73 505T54 542Q54 590 79 624T143 681T227 713T312 724Q364 724 411 705T490 647T521 551Q521 479 486 423T397 323Q360 293 321
267T244 214T174 153T119 73Q177 73 234 74T350 77Q379 78 406 84T458 106Q477 119 489 135T514 171Q518 177 522 181T533 186Q545 186 545 170Z" />
<glyph unicode="3" glyph-name="three" horiz-adv-x="590" d="M536 247Q536 208 522 168T483 94T424 38Q385 13 340 2T248 -9Q214 -9 178 -2T112 24T62 73Q56 83 52 94T48 118Q48 132 59 143T87 160T115 166Q129 166 148 160T168 136Q168 112 174 86T195 42T241
24Q284 24 313 42T360 91T385 158T393 232Q393 267 381 300T344 355T279 377Q263 377 247 375T214 371Q210 370 206 369T196 368Q189 368 185 375T180 389Q180 403 191 404T213 406Q228 406 244 406T274 411Q324 425 347 468T370 559Q370 587 363 620T338 676T283
700Q243 700 220 678T188 622T178 555Q178 544 167 537T142 526T119 522Q93 522 79 540T65 583Q65 595 73 612T88 640Q113 676 149 696T226 724T308 732Q355 732 401 715T477 663T507 574Q507 530 486 495T430 436T356 401Q405 396 445 382T511 336T536 247Z" />
<glyph unicode="4" glyph-name="four" horiz-adv-x="590" d="M303 589Q298 580 281 553T240 487T191 407T145 331T110 272T96 248Q96 245 100 245H303Q303 305 303 365T303 485V589ZM568 311Q568 305 565 283T559 238T555 205Q554 198 550 197T540 196H436Q437
165 437 135T436 74Q436 61 440 47T461 33Q475 33 488 34T514 36Q522 36 526 30T530 17Q530 10 526 4T514 -2Q500 -2 486 -2T457 0Q435 1 413 1T368 1Q345 1 322 1T276 -1Q264 -2 252 -2T227 -3Q220 -3 214 1T208 14Q208 28 216 31T235 34Q243 34 251 34T268 33Q289
33 296 42T303 70Q303 102 303 133T302 196H41Q23 196 23 211Q23 220 29 227Q52 268 77 307T127 387Q178 470 227 554T328 720Q339 738 360 738Q372 738 384 738T410 739Q419 739 428 737T437 722V245H480Q506 245 521 267T547 309Q549 314 551 317T559 321Q568
321 568 311Z" />
<glyph unicode="5" glyph-name="five" horiz-adv-x="590" d="M539 252Q539 174 503 117T404 29T267 -2Q226 -2 177 6T95 42Q75 59 63 77T51 124Q51 138 62 148T90 163T117 168Q140 168 159 157T179 120Q179 86 194 61T248 35Q292 35 320 56T365 111T389 184T396
258Q396 284 392 312T377 366T345 407T291 423Q274 423 254 414T221 393Q205 377 199 355T191 309Q191 307 191 303T189 296Q184 287 173 287Q168 287 153 290T121 299T92 310T80 322Q80 331 83 341T87 361Q97 424 98 488T99 616Q99 670 93 722Q128 718 162 715T231
712H357Q392 712 423 716T484 740Q489 743 493 743Q496 743 499 742T503 735Q503 733 499 720T489 692T482 673Q475 656 467 654T440 651Q390 651 340 653T239 654H185Q184 595 181 536T175 417Q214 443 252 451T337 460Q392 460 437 431T511 354T539 252Z" />
<glyph unicode="6" glyph-name="six" horiz-adv-x="590" d="M409 214Q409 240 407 274T395 340T366 394T310 416Q276 416 247 398T198 354Q192 332 192 308T191 261Q191 239 192 209T197 146T213 86T244 41T296 23Q333 23 355 42T389 90T405 153T409 214ZM547
238Q547 159 512 105T418 22T282 -6Q224 -6 178 20T101 90T58 189Q53 215 51 242T49 296Q49 329 57 367T76 437Q124 572 216 656T447 779Q458 782 468 784T490 786Q498 786 498 778Q498 774 491 771T480 766Q437 746 398 722T326 662Q279 612 249 550T202 421Q237
438 263 445T328 452Q391 452 440 425T518 350T547 238Z" />
<glyph unicode="7" glyph-name="seven" horiz-adv-x="590" d="M538 685Q497 640 462 590T404 481Q366 383 353 278T337 68Q337 46 333 27T317 -5T276 -18Q195 -18 195 66Q195 77 196 89T200 112Q225 266 286 412T457 674Q414 673 371 672T283 669Q258 668 233
667T183 661Q168 657 153 652T126 635Q110 619 102 599T85 559Q79 546 67 546Q52 546 52 562Q52 567 54 589T57 627Q59 646 60 665T62 702Q63 710 66 716T79 722Q127 722 175 721T272 719Q338 719 405 720T538 725V685Z" />
<glyph unicode="8" glyph-name="eight" horiz-adv-x="590" d="M417 191Q417 274 372 316T254 381Q205 350 181 301T156 194Q156 152 168 113T210 50T288 25Q315 25 340 39Q383 62 400 104T417 191ZM398 577Q398 632 373 671T287 711Q253 711 233 691T205 642T197
583Q197 522 227 488T312 431Q353 451 375 492T398 577ZM553 228Q553 153 519 101T426 22T296 -6Q250 -6 204 4T120 38T60 98T37 190Q37 228 54 265T99 328Q122 349 150 365T205 397Q174 410 143 431T92 482T72 550Q72 598 92 633T147 692T223 727T308 739Q343
739 379 731T445 704T493 657T512 587Q512 523 473 479T376 413Q418 399 458 375T526 314T553 228Z" />
<glyph unicode="9" glyph-name="nine" horiz-adv-x="590" d="M399 446Q399 469 399 500T394 566T379 630T348 678T294 697Q257 697 235 678T201 630T185 567T181 506Q181 481 183 447T195 380T224 326T280 304Q315 304 343 322T392 366Q397 386 398 406T399 446ZM541
424Q541 390 533 353T514 283Q466 148 374 64T143 -59Q133 -62 122 -64T100 -66Q92 -66 92 -58Q92 -54 99 -51T110 -46Q154 -26 193 -2T264 58Q311 108 341 170T388 299Q354 283 327 276T262 268Q200 268 150 295T72 371T43 482Q43 561 78 615T173 698T308 726Q366
726 412 700T490 630T532 531Q537 505 539 478T541 424Z" />
<glyph unicode=":" glyph-name="colon" horiz-adv-x="390" d="M273 84Q273 50 251 30T195 10Q161 10 139 30T117 84Q117 119 139 138T195 158Q229 158 251 139T273 84ZM273 442Q273 408 251 388T195 368Q161 368 139 388T117 442Q117 477 139 497T195 517Q229
517 251 497T273 442Z" />
<glyph unicode=";" glyph-name="semicolon" horiz-adv-x="390" d="M273 49Q273 20 261 -16T229 -84T188 -137L159 -128Q170 -111 181 -86T199 -34T205 13Q197 8 188 7T168 5Q149 5 134 23T118 61Q118 96 139 118T196 141Q239 141 256 114T273 49ZM272 441Q272
407 250 387T194 367Q161 367 139 387T117 441Q117 476 139 496T194 516Q228 516 250 496T272 441Z" />
<glyph unicode="&lt;" glyph-name="less" horiz-adv-x="780" d="M685 42L66 359L685 674V594L190 359L685 121V42Z" />
<glyph unicode="=" glyph-name="equal" horiz-adv-x="750" d="M678 257H73V312H678V257ZM678 414H73V469H678V414Z" />
<glyph unicode="&gt;" glyph-name="greater" horiz-adv-x="780" d="M685 359L66 42V121L561 359L66 594V674L685 359Z" />
<glyph unicode="?" glyph-name="question" horiz-adv-x="560" d="M356 54Q356 23 334 2T282 -20Q252 -20 230 1T208 54Q208 84 230 106T282 128Q312 128 334 106T356 54ZM508 574Q508 537 489 502T440 443Q412 421 388 409T344 379T309 322Q299 296 297 257T294
189H260Q257 209 255 230T253 271Q253 292 254 313T260 354Q268 386 282 407T312 446T344 483T368 530T378 599Q378 645 357 680T284 715Q238 715 205 687T172 611Q172 598 177 586T182 559Q182 527 159 515T107 502Q82 502 67 521T52 564Q52 582 57 599T72 633Q105
692 164 717T289 742Q343 742 393 726T475 674T508 574Z" />
<glyph unicode="@" glyph-name="at" horiz-adv-x="900" d="M540 437Q540 449 536 463T523 489T500 500Q475 500 457 481T427 432T407 369T396 306T392 258Q392 242 397 220T414 180T446 162Q461 162 471 173T487 197Q490 204 496 228T510 284T524 348T535 404T540
437ZM836 405Q836 360 821 309T777 213T707 140T614 111Q586 111 556 123T515 163Q490 143 464 131T405 118Q364 118 336 141T293 200T278 273Q278 316 293 361T337 444T404 506T492 530Q515 530 538 520T578 495Q590 506 610 515T647 524Q658 524 669 518T681
498Q681 498 681 497T680 495Q671 467 659 428T634 345T615 262T607 194Q607 184 610 167T630 150Q660 150 681 171T718 225T742 295T755 367T759 424Q759 503 724 562T629 654T490 687Q424 687 368 656T272 573T210 462Q195 422 190 380T184 294Q184 235 204 179T262
76T353 0Q378 -13 405 -20T462 -28Q516 -28 559 -19T643 9T729 56Q733 59 741 59Q746 59 751 55T756 44Q756 35 751 30T740 19Q706 -8 657 -26T557 -54T462 -63Q382 -63 311 -42T184 26T95 150Q82 182 74 217T65 287Q65 378 97 456T188 592T323 683T492 716Q587
716 665 681T789 576T836 405Z" />
<glyph unicode="A" glyph-name="A" horiz-adv-x="774" d="M463 297Q435 382 406 466T349 635Q320 550 292 466T234 297H463ZM763 10Q763 -5 744 -5Q738 -5 732 -5T719 -4Q694 -2 668 -2T615 -2Q582 -2 549 -2T482 -4Q478 -5 474 -5T466 -5Q452 -5 452 9Q452 21
460 23T480 25T498 24Q516 24 524 31T533 58Q533 69 526 96T509 157T490 218T476 259H221Q219 253 212 232T196 183T177 128T162 82T156 58Q156 39 166 32T191 25T220 24Q225 24 228 18T231 6Q231 0 227 -3T217 -6Q184 -6 152 -5T87 -3Q71 -3 55 -4T22 -5Q17 -5
12 -1T7 8Q7 19 15 22T33 25T51 24Q64 24 72 34T85 55Q144 203 197 352T300 653Q304 664 310 684T316 714Q316 720 314 724T311 733Q311 737 321 739T342 742T356 743Q377 746 397 749T439 754L684 63Q692 39 705 33T742 26Q751 26 757 24T763 10Z" />
<glyph unicode="B" glyph-name="B" horiz-adv-x="694" d="M503 201Q503 241 495 280T462 347T387 374Q353 374 320 373T252 371V58Q252 30 266 25T303 20Q315 20 327 20T352 21Q402 24 435 49T486 114T503 201ZM453 558Q453 617 436 647T382 688T292 699Q282 699
272 699T252 697V401H281Q301 401 325 402T371 411T409 433Q432 456 442 491T453 558ZM646 218Q646 150 615 98T519 18Q483 2 439 -2T355 -7Q346 -7 337 -7T319 -6Q246 -3 172 -3Q144 -3 116 -5T59 -8Q55 -8 52 -5T49 3Q49 15 58 17T81 22T105 34T118 72Q119 84
119 96T119 120Q119 247 119 373T118 627Q118 671 103 681T47 691Q40 691 35 696T29 708Q29 727 50 727Q70 727 91 725T132 723Q183 723 234 726T336 734Q346 735 355 735T374 736Q431 736 481 723T563 673T595 569Q595 530 575 495T523 437Q513 428 501 422T476
409Q474 408 469 406T463 399Q463 396 468 395T476 392Q492 388 507 384T537 371Q583 349 614 310T646 218Z" />
<glyph unicode="C" glyph-name="C" horiz-adv-x="725" d="M708 168Q708 163 703 154T696 140Q683 117 656 92T606 51Q559 18 507 8T399 -2Q290 -2 213 43T96 170T55 359Q55 465 94 550T209 685T397 736Q447 736 482 724T561 696Q582 689 603 686T646 680Q647 658
649 636T654 590Q656 571 661 551T666 511Q666 492 653 483T622 474Q594 474 583 497Q580 505 579 514T576 531Q569 563 552 600T510 660Q491 677 458 690T399 704Q374 704 353 693T311 666Q268 630 243 580T208 474T198 363Q198 327 202 292T217 221Q231 174 257
133T323 66T415 40Q489 40 549 77T650 174Q656 184 662 191T682 199Q695 199 701 189T708 168Z" />
<glyph unicode="D" glyph-name="D" horiz-adv-x="821" d="M633 374Q633 431 621 488T580 592T506 667T393 696Q325 696 259 693V81Q259 55 267 44T303 33Q337 33 374 36T447 49T510 81Q575 134 604 213T633 374ZM778 388Q778 324 759 262T704 148T613 59Q578 36
531 22T436 1T345 -5Q310 -5 276 -3T206 0Q181 0 156 0T104 -3Q94 -4 85 -4T67 -5Q49 -5 49 11Q49 21 58 24T78 28T95 32Q112 40 117 57T122 90Q122 181 122 271T122 451Q122 503 122 554T120 657Q120 659 120 665T119 673Q116 685 103 689T75 693T50 692Q42 692
35 695T28 709Q28 728 47 728Q72 728 96 727T146 725Q217 725 288 730T431 736Q539 736 617 694T736 574T778 388Z" />
<glyph unicode="E" glyph-name="E" horiz-adv-x="674" d="M648 172Q648 156 645 140T639 106Q637 87 635 67T630 27Q627 11 621 6T598 0Q496 0 394 1T190 3Q155 3 120 0T50 -4Q33 -4 33 13Q33 30 48 30T80 33Q100 35 112 48T125 104V643Q125 659 120 674T94 689Q82
689 70 689T46 688Q21 688 21 712Q21 724 29 727T47 731Q76 731 104 730T160 728Q254 728 348 729T536 731Q554 731 572 732T608 736Q610 720 612 704T617 672Q620 653 625 632T631 591Q631 579 621 572T600 564Q576 564 568 585Q553 632 524 663T441 695H261V401Q299
401 335 402T409 406Q446 409 480 418Q494 421 509 426T539 431Q551 431 551 420Q551 413 548 399T542 378Q537 365 532 363T514 360Q490 360 467 363Q429 367 390 368T312 370Q290 370 276 359T261 323V77Q261 53 267 43T299 33Q326 33 359 33T426 36T491 49T541
79Q558 96 574 124T600 174Q605 186 610 190T628 195Q640 195 644 189T648 172Z" />
<glyph unicode="F" glyph-name="F" horiz-adv-x="610" d="M598 588Q598 578 588 573T569 567Q558 567 550 571T538 588Q525 630 498 661T423 693H265V392Q280 392 295 392T325 392Q362 392 399 394T473 404Q487 408 502 413T532 418Q544 418 544 407Q544 399 541
386T534 365Q530 352 525 350T506 347Q460 347 415 352T324 357Q303 357 284 349T265 314V82Q265 52 276 41T306 30T347 29Q355 29 361 26T368 13Q368 -8 347 -8Q342 -8 337 -8T327 -7Q294 -5 261 -5T196 -5Q163 -5 130 -7T64 -10Q56 -10 49 -8T42 5Q42 18 50 21T72
24T98 26T119 44T128 91V641Q128 664 121 676T89 689Q80 689 72 689T54 688Q42 688 31 690T19 709Q19 718 25 723T39 728Q74 728 108 727T177 725Q325 725 472 728Q498 729 525 730T578 735Q582 706 586 677T594 619Q595 612 596 604T598 588Z" />
<glyph unicode="G" glyph-name="G" horiz-adv-x="781" d="M760 304Q760 296 757 289T743 282H692V75Q657 63 623 49T555 18Q521 2 482 -2T404 -6Q371 -6 333 1T259 21T196 54Q123 107 90 189T56 358Q56 437 80 506T151 627T263 708T411 738Q476 738 539 718Q548
715 566 708T603 695T628 688Q643 688 649 699T660 721T677 732Q683 732 688 729T694 719Q694 673 695 628T697 537Q697 523 688 514T664 505Q647 505 641 512T629 535Q604 612 552 659T415 706Q375 706 342 687T285 638T243 571T217 501Q208 467 204 431T200 359Q200
324 204 289T218 220Q231 174 257 132T322 63T414 36Q433 36 457 41T504 56T542 82T557 123V255Q557 263 553 271T539 279Q525 279 511 278T482 276Q474 276 469 285T463 302Q463 309 469 314T482 319Q496 319 510 319T539 318Q573 318 606 318T674 320Q692 321
710 322T746 324Q754 324 757 318T760 304Z" />
<glyph unicode="H" glyph-name="H" horiz-adv-x="837" d="M805 715Q805 708 801 702T789 696Q776 696 764 697T737 698Q727 698 724 689T721 672Q721 608 721 545T720 416Q720 325 720 235T721 53Q721 45 724 36T737 27Q751 27 763 28T789 29Q797 29 800 22T803
8Q803 -7 787 -7Q779 -7 771 -6T755 -5Q740 -3 725 -3T695 -3Q660 -3 626 -3T556 -5Q546 -5 536 -6T514 -7Q504 -7 501 -1T497 13Q497 21 503 25T516 29Q527 29 536 28T556 27Q571 27 576 32T582 53V364H253V51Q253 36 259 31T279 25Q289 25 299 26T319 27Q327
27 333 24T339 11Q339 -8 321 -8Q284 -8 248 -6T175 -3Q157 -3 139 -3T102 -4Q89 -5 77 -6T51 -8Q44 -8 41 -2T37 10Q37 15 41 21T51 27Q64 27 76 26T102 25Q113 25 116 34T119 51Q119 150 119 249T119 447Q119 503 119 559T119 671Q119 679 116 688T102 697Q89
697 77 696T51 695Q35 695 35 713Q35 720 39 726T51 732Q77 732 102 730T154 728Q195 728 236 730T319 732Q338 732 338 713Q338 700 328 698T308 696Q301 696 294 696T279 697Q266 697 260 689T253 668V397H582V672Q582 687 577 692T556 698Q546 698 537 697T516
696Q510 696 504 701T497 713Q497 732 516 732Q528 732 540 731T564 729Q587 728 610 728T656 727Q689 727 722 729T789 732Q797 732 801 727T805 715Z" />
<glyph unicode="I" glyph-name="I" horiz-adv-x="413" d="M345 713Q345 696 329 696Q317 696 305 696T280 697Q270 697 266 689T262 671Q262 636 262 601T261 530Q261 420 261 310T262 89Q262 82 261 67T263 40T278 27Q291 27 304 28T330 29Q337 29 340 24T343
11Q343 4 339 -1T326 -7Q292 -7 259 -6T191 -5Q157 -5 123 -6T55 -7Q45 -7 42 -3T39 10Q39 18 42 23T54 29Q65 29 76 28T97 27Q111 27 116 36T122 57T123 79L124 653Q124 662 122 679T108 698Q105 698 103 698T97 698Q87 698 78 697T58 696Q39 696 39 715Q39 722
43 727T55 732Q98 732 140 730T226 728Q252 728 278 730T331 732Q339 732 342 726T345 713Z" />
<glyph unicode="J" glyph-name="J" horiz-adv-x="456" d="M428 714Q428 707 423 701T409 695Q399 695 388 695T366 696Q349 696 342 685T335 660T334 632Q333 499 333 366T334 98Q334 20 313 -43T242 -143T103 -181Q82 -181 60 -181T17 -176Q1 -172 -19 -162T-54
-137T-69 -103Q-69 -73 -44 -60T6 -47Q27 -47 49 -57T72 -93Q64 -97 55 -104T46 -123Q46 -134 56 -140T79 -149T101 -151Q137 -151 156 -134T182 -89T189 -31T190 25V632Q190 642 190 656T185 683T167 697Q164 698 161 698T153 698Q140 698 128 697T101 695Q94
695 90 701T85 714Q85 721 89 727T101 734Q113 734 125 734T150 732Q177 731 204 731T259 730Q297 730 334 732T409 734Q428 734 428 714Z" />
<glyph unicode="K" glyph-name="K" horiz-adv-x="722" d="M721 16Q721 15 721 13T720 8Q716 0 704 0Q682 0 661 0T617 0H553Q525 0 512 9T483 40Q426 122 369 203T254 367L241 357Q242 282 242 207T242 58Q242 49 246 41T261 32Q274 32 287 33T313 34Q320 34 323
28T327 16Q327 11 323 5T313 -2Q289 -2 266 -1T219 1Q185 1 152 1T85 0Q72 -1 59 -1T32 -2Q23 -2 19 4T15 18Q15 34 32 34Q44 34 55 33T78 32Q98 32 102 43T106 70V645Q106 679 101 690T80 702T36 703Q30 703 24 706T17 717Q17 724 20 730T31 736Q53 736 74 735T118
733Q153 733 188 733T257 733Q271 733 285 734T314 736Q320 736 323 731T327 720Q327 715 324 709T314 703Q301 703 288 703T262 704Q252 704 247 696T242 679Q242 643 242 607T241 534V399Q312 467 378 537T505 684Q516 697 520 715Q524 729 528 732T546 735L576
734Q599 734 622 735T668 736Q685 736 685 719Q685 706 677 704T659 701Q639 701 621 693T587 670L349 443Q420 343 494 246T645 54Q659 37 677 33T708 28T721 16Z" />
<glyph unicode="L" glyph-name="L" horiz-adv-x="670" d="M653 230Q653 214 651 198T647 165Q643 130 638 95T630 25Q630 15 626 8Q621 1 611 0T593 -2Q581 -2 569 -2T544 -1Q481 0 418 0T292 0H178Q156 0 135 0T91 -1Q80 -2 69 -2T47 -3Q38 -3 32 2T25 16Q25
26 31 31T46 36Q54 36 62 35T79 34Q95 34 104 38T113 61Q113 216 113 371T112 681Q112 693 108 696T92 700Q81 700 70 699T46 698Q39 698 33 703T27 716Q27 735 47 735Q58 735 70 734T94 732Q118 731 141 731T189 730Q209 730 228 730T267 731Q281 732 294 733T320
735Q336 735 336 718Q336 711 332 705T320 698Q307 698 295 699T268 700Q257 700 255 695T252 679Q252 642 252 606T251 533Q251 417 251 300T252 67Q252 57 257 48T272 36Q285 33 299 33T326 33Q401 33 456 48T549 103T613 221Q616 230 621 237T636 245Q642 245
647 241T653 230Z" />
<glyph unicode="M" glyph-name="M" horiz-adv-x="947" d="M928 18Q928 -3 911 -3Q875 -3 840 -2T769 -1Q735 -1 701 -2T633 -4Q623 -4 619 2T615 17Q615 25 621 29T635 34Q644 34 653 33T671 32Q673 32 676 32T681 32Q698 34 699 51T701 81V601Q644 459 586 319T471
35H393Q336 183 276 329T157 623Q157 486 159 350T161 76Q161 64 162 48T181 31Q194 31 206 32T231 33Q238 33 243 28T248 15Q248 10 244 4T234 -3Q216 -3 198 -2T162 -1Q130 -1 97 -2T32 -3Q22 -3 19 2T16 17Q16 25 22 29T35 33Q44 33 53 32T72 31Q89 31 96 35T104
59Q104 211 105 363T107 668Q107 684 102 691T79 699Q69 699 59 698T39 697Q31 697 25 703T19 717Q19 736 39 736Q63 736 87 735T136 734Q165 734 194 734T253 737L476 185Q530 322 589 457T694 734Q717 733 740 733T788 732Q819 732 850 734T913 736Q921 736 924
730T927 717Q927 711 924 704T913 696Q899 696 885 696T856 697Q846 697 842 689T837 671Q837 613 837 554T836 435Q836 347 836 259T837 83Q837 74 838 62T845 41T863 31Q875 31 887 32T912 33Q918 33 923 29T928 18Z" />
<glyph unicode="N" glyph-name="N" horiz-adv-x="780" d="M766 718Q766 699 747 699Q739 699 731 700T715 701Q711 701 706 701T696 700Q686 700 683 688T680 661T680 640V17Q680 10 679 5T668 -1Q654 -3 638 -3T608 -3Q600 23 586 47T555 93Q463 227 361 352T164
609Q164 474 164 340T163 70Q163 61 165 48T180 34Q194 34 208 35T236 36Q244 36 246 29T249 16Q249 9 246 3T234 -3Q217 -3 200 -1T166 1Q143 1 119 1T72 -2Q63 -3 55 -3T38 -4Q18 -4 18 17Q18 25 24 30T37 36Q47 36 56 35T75 33Q90 33 97 37T105 60Q105 198 107
336T110 612Q110 625 110 637T110 662Q110 675 106 688T85 701Q73 701 61 700T35 699Q18 699 18 718Q18 736 36 736Q62 736 88 735T139 734Q162 734 185 734T232 735Q291 655 356 581T482 427Q517 380 553 333T626 240Q626 346 626 452T627 664Q627 673 625 686T609
700H582Q576 700 570 699T558 697Q539 697 539 718Q539 730 546 732T563 735Q583 735 602 734T641 733Q667 733 693 735T746 737Q754 737 760 732T766 718Z" />
<glyph unicode="O" glyph-name="O" horiz-adv-x="820" d="M617 363Q617 401 611 447T591 540T553 624T494 686T409 710Q360 710 324 687T264 625T224 540T203 448T196 363Q196 325 203 280T225 189T264 106T325 46T409 23Q459 23 494 45T553 105T591 187T611 278T617
363ZM762 365Q762 252 722 168T604 38T409 -8Q295 -8 216 38T96 168T55 363Q55 441 79 509T150 630T262 711T409 740Q523 740 602 693T721 561T762 365Z" />
<glyph unicode="P" glyph-name="P" horiz-adv-x="624" d="M465 549Q465 591 451 626T408 681T333 702Q323 702 313 702T293 703Q268 703 261 699T254 666Q254 598 254 529T255 392Q270 379 290 376T329 372Q381 372 410 397T452 464T465 549ZM609 552Q609 486
586 445T524 380T434 349T327 340Q309 340 291 342T255 346Q255 273 255 201T255 55Q255 47 258 38T272 29Q285 29 297 30T323 31Q330 31 334 23T339 10Q339 3 334 -1T323 -5Q310 -5 297 -4T270 -2Q250 0 229 0T188 0Q140 0 93 -3Q82 -4 72 -4T50 -5Q40 -5 37 1T34
15Q34 23 40 26T53 30Q62 30 71 29T90 28Q92 28 95 28T100 28Q114 29 116 44T119 69V658Q119 666 117 681T103 698Q100 698 98 698T93 698Q83 698 73 697T53 696Q46 696 40 702T33 715Q33 722 39 728T53 734Q64 734 75 733T98 731Q121 730 143 730T188 729Q234
729 279 731T371 734Q415 734 457 725T534 694T588 638T609 552Z" />
<glyph unicode="Q" glyph-name="Q" horiz-adv-x="820" d="M434 26Q418 58 405 90T377 155Q373 163 369 171T358 185Q347 196 333 196Q316 196 303 182T282 148T271 115Q283 94 308 74T362 39T416 25Q421 25 425 25T434 26ZM612 358Q612 406 603 462T573 570T515
660T422 708Q418 709 415 709T407 709Q403 709 400 709T393 708Q339 698 304 660T247 569T216 460T207 358Q207 329 209 294T220 225T242 165Q253 179 271 196T311 227T352 240Q396 240 421 226T472 175Q488 151 500 126T524 74Q563 110 582 157T606 256T612 358ZM796
-45Q796 -48 794 -52Q769 -88 734 -104T655 -121Q620 -121 588 -116T527 -88Q505 -71 486 -48T450 -2Q441 -3 432 -3T413 -3Q334 -3 270 24T160 101T90 217T65 361Q65 440 88 509T157 630T268 711T415 740Q532 740 608 690T721 554T759 358Q759 290 735 226T667
111T562 27Q578 7 600 -16T648 -56T701 -72Q721 -72 736 -62T763 -41T782 -31Q787 -31 791 -35T796 -45Z" />
<glyph unicode="R" glyph-name="R" horiz-adv-x="707" d="M462 550Q462 624 430 664T320 704H302Q294 704 285 704T268 702Q258 699 255 693T252 676Q252 618 252 561T251 444V403Q258 402 265 402T279 401Q331 401 372 413T438 458T462 550ZM716 14Q716 5 700
1T661 -5T618 -7T591 -8Q553 -8 523 0T471 45Q425 125 381 207T293 372L251 373Q251 294 251 215T252 55Q252 46 257 38T272 29Q284 29 296 30T320 31Q325 31 329 25T334 13Q334 6 331 1T320 -4Q311 -4 303 -3T287 -2Q269 0 251 0T215 0Q172 0 129 -2T41 -4Q24
-4 24 14Q24 21 30 25T43 30Q53 30 63 29T83 28Q97 28 107 33T117 54V672Q117 687 111 692T91 698Q81 698 71 697T51 696Q44 696 37 701T29 714Q29 733 51 733Q61 733 71 733T91 731Q111 730 132 730T173 729Q221 729 268 732T363 736Q404 736 447 729T527 702T588
651T611 568Q611 507 587 470T520 413T423 382Q467 302 518 225T621 73Q635 54 657 40T702 25Q709 25 712 24T716 14Z" />
<glyph unicode="S" glyph-name="S" horiz-adv-x="594" d="M562 184Q562 126 536 88T468 27T375 -4T277 -13Q240 -13 206 -3T137 21Q120 27 104 28T69 30Q66 54 63 77T56 125Q54 142 51 158T48 190Q48 204 53 213T74 222Q88 222 95 217T107 198Q114 180 118 161T130
123Q147 76 185 48T276 20Q346 20 383 60T421 170Q421 210 404 236T360 282T302 318Q273 334 243 348T184 377Q152 394 122 419T72 478T52 551Q52 617 86 660T175 724T289 745Q327 745 362 735T432 710Q443 706 452 704T473 702Q481 702 488 702T502 704Q505 672
509 640T517 576Q518 571 518 566T519 555Q519 541 513 530T490 518Q477 518 471 524T460 541Q448 572 437 602T405 658Q383 686 350 699T282 713Q248 713 225 695T191 647T180 587Q180 539 205 513T269 464Q290 453 311 443T354 422Q404 399 451 367T530 290T562
184Z" />
<glyph unicode="T" glyph-name="T" horiz-adv-x="690" d="M684 551Q684 541 679 533T663 524Q647 524 642 531T632 551Q629 565 623 585T609 626T593 658Q589 664 584 669T574 680Q567 689 549 692T512 696T482 697Q469 697 454 697T428 691T416 666Q415 632 415
597T415 526Q415 412 415 298T416 70Q416 58 419 42T439 26Q454 26 468 27T498 28Q506 28 510 22T514 9Q514 -9 497 -9Q486 -9 475 -8T452 -6Q433 -4 414 -4T375 -4Q342 -4 309 -4T243 -6Q231 -7 219 -8T194 -9Q185 -9 180 -3T175 11Q175 22 184 24T201 27Q212
27 221 27T241 26Q267 26 270 38T274 72V630Q274 669 270 682T249 696T193 697Q180 697 158 696T124 689Q111 682 103 671T90 645Q82 622 75 598T59 551Q55 537 49 531T27 524Q8 524 8 544Q8 570 13 603T20 666Q21 682 21 698T23 730Q24 737 30 737Q41 737 52 734T75
729Q87 728 99 728T125 726Q178 725 235 725T345 724Q404 724 469 725T593 726Q599 726 605 726T618 727Q629 729 639 733T661 737Q666 737 668 732Q671 718 672 700T674 667Q677 639 680 610T684 551Z" />
<glyph unicode="U" glyph-name="U" horiz-adv-x="756" d="M743 715Q743 708 739 702T726 695Q713 695 700 695T674 696Q661 696 658 684T655 661Q655 656 655 651T656 640Q656 549 656 459T657 279Q657 147 592 71T390 -6Q255 -6 180 59T105 264V309Q105 395 105
481T106 655Q106 664 104 679T90 696Q77 697 64 696T37 695Q30 695 24 700T18 713Q18 721 23 727T37 733Q49 733 60 732T83 730Q106 729 129 729T174 728Q197 728 218 728T262 729Q276 730 289 731T316 733Q324 733 328 727T333 713Q333 706 329 701T316 695Q303
695 291 696T265 697Q255 697 252 689T248 672Q247 656 247 640T248 608Q248 518 247 429T245 249Q245 206 248 168T266 99T310 52T395 35Q467 35 510 68T572 156T591 275Q591 374 587 473T583 671Q583 686 576 691T555 697Q545 697 536 696T515 695Q508 695 502
700T496 713Q496 721 501 727T515 733Q531 733 546 732T577 729Q587 728 597 728T617 728Q628 728 639 728T662 729Q678 729 693 731T725 733Q743 733 743 715Z" />
<glyph unicode="V" glyph-name="V" horiz-adv-x="754" d="M750 714Q750 695 730 695Q720 695 710 696T691 697Q681 697 673 686T662 666Q646 625 634 583T607 499Q582 419 555 340T501 181Q488 143 476 105T450 29Q446 18 438 7T416 -5L328 -7Q292 106 250 223T166
455Q153 493 141 525T114 595Q109 611 100 632T85 670Q78 687 61 689T28 691Q18 691 10 694T2 710Q2 718 7 724T21 731Q39 731 57 730T95 729Q141 729 187 729T279 730Q290 731 302 731T325 732Q333 732 336 726T340 713Q340 706 337 700T325 694Q309 694 294 694T262
695Q239 695 239 671Q239 661 242 650T249 628Q291 495 336 359T423 97Q467 226 505 357T577 619Q580 633 584 649T588 679Q588 696 579 696T556 697Q547 697 539 696T521 694Q513 694 506 698T498 713Q498 731 515 731Q529 731 543 730T572 729Q586 729 599 729T625
730Q651 730 678 732T732 734Q740 734 745 728T750 714Z" />
<glyph unicode="W" glyph-name="W" horiz-adv-x="1000" d="M982 717Q982 701 971 699T949 697Q936 697 925 692T908 675Q903 662 900 647T894 619Q861 462 824 306T750 -7H635Q602 118 565 241T493 488Q458 364 420 241T344 -7H236Q215 103 192 212T145 430L113
577Q109 597 105 617T96 657Q90 679 82 685T61 692T30 691Q20 691 16 698T11 714Q11 721 18 726T32 731Q61 731 91 730T151 728Q187 728 222 729T293 731Q300 731 305 725T311 713Q311 706 306 700T293 694Q286 694 280 694T266 695Q250 695 245 690T239 669Q239
664 239 659T241 648Q261 518 286 388T334 127Q362 225 392 322T447 518Q456 550 463 581T479 644Q482 658 485 671T493 698Q498 712 504 717T526 722Q538 722 548 720T563 706Q569 696 571 682T577 655Q586 623 595 591T613 525Q642 425 670 326T728 125Q742 196
757 266T786 408Q796 463 806 518T824 628Q826 640 827 652T828 677Q828 682 823 691T810 701Q804 701 798 701T786 701Q776 701 767 700T746 699Q739 699 735 704T730 716Q730 734 745 734Q763 734 781 733T818 732Q855 732 891 733T964 734Q982 734 982 717Z"
/>
<glyph unicode="X" glyph-name="X" horiz-adv-x="765" d="M763 19Q763 5 755 2T735 -1Q703 -1 670 -1T604 0Q570 0 535 -1T465 -2Q458 -2 453 1T447 12Q447 29 462 29T488 29Q494 29 501 31T509 40Q509 48 495 74T460 136T417 208T377 272T353 310Q346 299 326
269T280 201T230 125T189 62T172 32Q172 28 175 27T183 25Q199 25 214 26T245 28Q260 28 260 13Q260 -4 243 -4Q233 -4 223 -4T203 -3Q182 -2 162 -2T120 -2Q95 -2 70 -3T18 -5Q13 -5 8 1T2 12Q2 29 16 29T41 28Q58 28 71 31T98 45Q111 56 121 68T142 94Q187 150
235 218T321 347Q286 403 252 458T182 568Q164 596 147 624T109 680Q105 686 100 687T86 689Q74 689 63 687T39 685Q21 685 21 705Q21 724 43 724Q71 724 99 727T156 734Q170 736 185 739T213 742Q225 742 229 738T239 724Q255 696 269 668T300 610Q324 567 349
524T400 437Q407 449 423 475T459 534T497 598T527 654T539 688Q539 697 532 698Q522 701 510 701T487 700Q478 700 470 702T462 716Q462 733 478 733Q495 733 512 732T547 731Q577 731 607 731T668 733Q678 734 687 734T707 735Q723 735 723 717Q723 704 714 700T690
696T662 695T639 686Q633 682 628 677T618 666Q572 600 526 534T433 403Q467 350 501 298T572 193Q595 160 617 127T665 62Q682 40 701 38T745 35Q763 35 763 19Z" />
<glyph unicode="Y" glyph-name="Y" horiz-adv-x="693" d="M705 718Q705 702 694 702T671 701Q664 701 655 701T640 697Q634 695 627 686T616 671Q564 585 513 499T411 326Q412 262 412 198T411 69Q411 56 415 42T435 27Q449 27 462 28T489 29Q497 29 501 24T506
11Q506 4 501 0T489 -5Q458 -5 427 -3T365 -1Q335 -1 306 -1T247 -3Q235 -4 223 -4T199 -5Q180 -5 180 12Q180 30 198 30Q209 30 219 29T239 28Q260 28 266 35T273 56T272 84L273 267Q273 298 265 322T244 374Q226 416 206 457T164 539Q147 573 129 608T89 674Q84
682 74 688T53 695Q46 695 38 694T22 692Q14 692 8 697T1 710Q1 726 18 728Q36 730 54 731T90 733Q116 736 142 739T195 742Q207 742 212 738T223 722Q261 632 300 543T380 365Q389 379 408 412T449 486T492 569T526 643T539 690Q539 699 534 701T520 704Q510 704
501 703T481 701Q459 701 459 720Q459 736 477 736Q506 736 535 735T593 733Q617 733 641 734T689 736Q705 736 705 718Z" />
<glyph unicode="Z" glyph-name="Z" horiz-adv-x="645" d="M621 229Q621 219 620 209T617 187Q615 168 612 149T607 111Q604 89 603 68T600 24Q599 13 595 5T577 -4Q567 -4 558 -2T540 1Q533 1 527 1T513 2Q416 2 319 1T123 -1Q107 -1 91 -1T59 -3Q55 -4 51 -4T41
-5Q29 -5 24 4T18 23Q18 34 22 42Q26 50 32 58T43 74Q92 145 140 215T233 358Q242 372 261 404T305 475T352 554T389 623T404 665Q404 685 389 689T358 694H317Q294 694 270 694T223 689Q189 683 159 654T114 593Q109 580 105 568T97 543Q91 518 68 518Q59 518
53 524T46 538Q46 554 47 569T50 599Q52 628 52 657T54 716Q55 725 58 728T70 732Q83 732 95 731T119 729Q157 726 196 726T275 725Q353 725 431 727T589 730Q594 730 599 724T604 713Q604 700 601 694T590 679L212 107Q205 96 200 84T194 59Q194 43 207 40T233
37Q280 37 326 40T418 47Q438 49 460 56T497 77Q525 103 546 144T578 221Q581 231 585 238T601 246Q609 246 615 242T621 229Z" />
<glyph unicode="[" glyph-name="bracketleft" horiz-adv-x="450" d="M432 -99H162V854H432V814H253V-60H432V-99Z" />
<glyph unicode="\" glyph-name="backslash" horiz-adv-x="500" d="M459 -64L419 -80L42 777L83 793L459 -64Z" />
<glyph unicode="]" glyph-name="bracketright" horiz-adv-x="450" d="M432 -99H162V-60H341V814H162V854H432V-99Z" />
<glyph unicode="^" glyph-name="asciicircum" horiz-adv-x="560" d="M534 474H447L280 684L113 474H26L237 745L323 744L534 474Z" />
<glyph unicode="_" glyph-name="underscore" horiz-adv-x="500" d="M498 -119H2V-81H498V-119Z" />
<glyph unicode="`" glyph-name="grave" horiz-adv-x="390" d="M336 798L323 746L54 800L73 877L336 798Z" />
<glyph unicode="a" glyph-name="a" horiz-adv-x="544" d="M334 106Q331 153 330 200T330 296Q289 289 251 271T187 221T162 142Q162 122 167 99T187 61T227 45Q245 45 265 55T303 80T334 106ZM540 47Q540 43 537 38T530 30Q499 -6 450 -6Q407 -6 381 13T341 72Q309
38 273 18T187 -2Q152 -2 117 13T58 58T34 125Q34 163 53 192T103 243T164 279Q204 296 246 305T330 325V329Q330 347 330 377T323 438T303 490T262 512Q231 512 207 494T172 446Q170 437 169 429T166 411Q164 395 148 390T117 384Q100 384 84 391T68 420Q68 428
70 434T76 448Q92 486 124 504T194 528T268 534Q350 534 403 490T456 360V209Q455 181 455 152T458 93Q460 76 466 61T493 45Q507 45 516 51T534 57Q538 57 539 53T540 47Z" />
<glyph unicode="b" glyph-name="b" horiz-adv-x="610" d="M437 279Q437 312 432 351T412 425T369 482Q359 490 348 494T325 499Q300 499 275 482T237 443Q236 441 234 436T231 428V83Q231 55 240 41T279 26Q327 26 357 51T405 115T430 198T437 279ZM573 278Q573
194 540 131T445 33T299 -2Q268 -2 239 3T178 9Q161 9 145 5T112 1Q107 1 102 3T96 12Q96 14 97 17T98 22Q102 37 103 52T105 83V680Q105 691 102 704T84 717Q68 717 53 716T22 714Q18 714 16 718T13 726Q13 735 22 738Q33 741 44 742T66 745Q94 750 122 754T177
767Q185 769 192 771T207 774Q215 774 222 769T230 754V495Q258 512 290 521T355 531Q430 531 478 497T549 405T573 278Z" />
<glyph unicode="c" glyph-name="c" horiz-adv-x="540" d="M529 133Q529 129 527 125T523 116Q502 77 467 51T388 10T302 -4Q265 -4 221 8T145 42Q93 80 69 136T44 255Q44 333 74 397T161 501T301 540Q331 540 358 531Q366 529 383 521T418 505T439 498Q450 498
460 506T477 515Q483 515 483 507Q485 497 485 486T486 463Q487 439 489 415T492 367Q492 354 488 344T469 334Q459 334 454 339T447 352Q435 388 423 422T381 483Q370 494 350 503T313 513Q271 513 244 486T201 419T179 337T172 262Q172 232 179 193T202 117T244
56T309 31Q346 31 384 47T448 89Q456 97 464 106T480 125Q483 130 486 134T493 143Q501 151 509 151Q517 151 523 146T529 133Z" />
<glyph unicode="d" glyph-name="d" horiz-adv-x="606" d="M393 380Q393 406 385 434T358 483T307 503Q291 503 276 499T247 484Q219 462 203 422T180 338T173 259Q173 231 176 194T191 120T224 61T284 37Q307 37 329 53T368 93T393 136V380ZM603 42Q603 33 590
25T557 10T520 1T494 -3Q458 -3 435 19T399 72Q379 44 346 22T277 0Q246 0 212 6T150 30Q95 67 68 128T41 254Q41 337 71 399T161 497T305 532Q326 532 349 524T391 505V678Q391 689 389 703T371 718Q356 718 342 717T313 716Q299 716 299 728Q299 740 310 741Q318
743 326 743T341 744Q360 746 378 749T414 755Q433 759 451 763T487 772Q492 774 496 775T504 776Q519 776 519 760V109Q519 97 520 82T529 55T553 43Q564 43 575 48T594 53Q599 53 601 50T603 42Z" />
<glyph unicode="e" glyph-name="e" horiz-adv-x="545" d="M378 351Q378 371 376 399T367 453T343 498T299 516Q272 516 252 499T217 455T195 400T183 349Q200 349 216 349T249 348Q314 348 378 351ZM522 130Q522 127 521 122T517 113Q510 97 491 77T457 45Q390
-6 302 -6Q223 -6 165 27T76 121T45 259Q45 337 75 400T163 501T302 539Q395 539 451 488T507 342Q507 316 483 316Q439 316 395 317T307 318Q275 318 243 318T179 317Q176 287 176 256Q176 228 183 190T206 116T247 57T308 33Q353 33 383 46T438 83T487 140Q490
144 493 146T502 149Q509 149 515 144T522 130Z" />
<glyph unicode="f" glyph-name="f" horiz-adv-x="390" d="M417 629Q417 604 390 604Q377 604 370 616T358 646T346 682T325 712T285 724Q262 724 249 710T231 677T226 638Q226 604 227 571T230 503H343Q351 503 355 498T359 486Q359 479 355 473T343 467H234V313Q234
254 234 194T235 75Q235 65 238 48T255 31Q267 31 279 31T304 32Q310 32 315 25T320 12Q320 3 313 0T299 -4Q263 -4 228 -3T157 -1Q127 -1 97 -2T37 -3Q20 -3 20 14Q20 29 34 31Q46 32 58 31T82 30Q99 30 102 46T105 75V469H53Q43 469 38 462T26 454Q14 454 14
468Q14 471 17 481T21 495Q25 506 35 505T54 503H105V578Q105 675 153 713T292 751Q321 751 350 739T401 726Q406 726 409 727Q411 703 414 678T417 629Z" />
<glyph unicode="g" glyph-name="g" horiz-adv-x="552" d="M380 -41Q380 -2 364 15T320 37T263 45L188 53Q168 30 161 7T154 -45Q154 -105 187 -127T275 -149Q327 -149 353 -121T380 -41ZM337 375Q337 393 336 417T329 464T309 502T270 517Q240 517 224 500T200
456T192 401T190 352Q190 330 192 305T201 258T225 222T270 208Q295 208 308 222T328 259T335 305T337 346V375ZM535 512Q535 500 520 494T486 487T458 485Q447 485 436 485T413 487Q429 473 440 450T458 402T465 355Q465 303 437 265T363 207T270 187Q260 187
249 187T227 188Q212 175 203 162T193 125Q193 117 201 109T216 98Q231 93 248 92T280 88Q319 86 362 84T442 68T502 13Q508 3 509 -7T511 -29Q511 -72 487 -100T425 -146T346 -170T270 -178Q245 -178 206 -175T129 -160T64 -128T38 -71Q38 -43 51 -20T83 22T122
58Q110 61 91 70T72 95Q72 106 82 122T107 155T136 186T159 209Q113 234 87 273T61 366Q61 421 91 458T169 515T266 535Q280 535 295 533T324 528Q340 524 356 520T389 515Q427 515 466 526Q489 532 501 548T522 564Q531 564 533 554T536 531T535 512Z" />
<glyph unicode="h" glyph-name="h" horiz-adv-x="636" d="M615 14Q615 -4 598 -4Q584 -4 570 -3T541 0Q521 1 501 1T460 0Q436 0 413 -2T366 -5Q360 -5 355 0T349 11Q349 28 366 28Q376 28 385 27T404 26Q419 26 419 42Q419 119 419 195T420 348Q420 375 418 407T406
465Q397 488 383 496T345 504Q323 504 300 488T258 450T231 408V38Q231 27 245 27Q255 27 264 28T283 30Q288 30 293 25T299 14Q299 -4 282 -4Q268 -4 254 -3T225 -1Q215 -1 205 -1T184 -1H131Q112 -1 93 -3T55 -5Q39 -5 39 13Q39 29 56 29Q66 29 75 28T94 27Q106
27 106 38V675Q106 685 104 699T87 714Q74 714 61 712T34 710Q29 710 25 715T21 725Q21 735 34 737Q75 746 116 751T198 769Q206 772 214 772Q228 772 228 759V469Q257 496 296 517T375 538Q443 538 480 521T533 465T549 359V42Q549 27 563 27Q572 27 581 28T599
30Q606 30 610 25T615 14Z" />
<glyph unicode="i" glyph-name="i" horiz-adv-x="344" d="M314 12Q314 -4 298 -4Q269 -4 239 -2T179 1Q149 1 119 -1T58 -4Q51 -4 48 1T45 12Q45 28 60 28Q70 28 79 27T97 26Q109 26 112 34T116 52V449Q116 459 114 471T98 484Q85 484 71 482T43 480Q37 480 32
483T26 493Q26 506 39 510Q50 512 62 513T86 516Q121 521 154 528T222 544Q225 544 228 544T233 545Q248 545 248 533Q248 413 247 293T246 52Q246 34 254 30T274 26T300 27Q314 27 314 12ZM251 699Q251 668 229 645T174 622Q143 622 120 645T97 699Q97 731 120
753T174 776Q206 776 228 754T251 699Z" />
<glyph unicode="j" glyph-name="j" horiz-adv-x="380" d="M274 60Q274 25 271 -12T251 -83Q226 -133 176 -159T71 -185Q40 -185 7 -177T-49 -143Q-56 -135 -61 -126T-67 -107Q-67 -81 -44 -65T3 -48Q17 -48 19 -57T23 -77Q25 -91 29 -107T44 -135T73 -147Q101
-147 115 -130T135 -88T141 -41Q141 81 141 203T140 448Q140 458 138 471T122 484Q109 484 95 482T67 480Q61 480 56 483T50 493Q50 505 63 509Q75 513 89 514T117 517Q150 522 183 528T249 543Q255 545 260 545Q274 545 274 532V60ZM276 699Q276 668 254 645T199
622Q168 622 145 645T122 699Q122 731 145 753T199 776Q231 776 253 754T276 699Z" />
<glyph unicode="k" glyph-name="k" horiz-adv-x="592" d="M595 15Q595 7 590 5T578 1Q554 -1 530 -1T483 -2Q470 -2 456 -1T429 4Q416 8 407 19T391 42Q354 107 316 171T243 301L218 284V54Q218 36 225 31T245 27T273 29Q287 29 287 13Q287 -3 271 -3Q242 -3 214
-1T156 1Q127 1 98 -1T40 -4Q34 -4 31 1T27 13Q27 28 43 28Q53 28 62 28T81 27Q93 27 95 35T97 53Q98 67 98 81T99 108V593Q99 615 99 636T97 679Q96 690 94 703T76 716Q66 716 57 715T37 714Q21 714 21 728Q21 738 32 741Q44 744 57 745T82 748Q110 753 137 760T193
774Q196 775 198 775T204 776Q219 776 219 763Q219 651 218 540T217 317Q252 344 288 371T356 430Q371 445 387 460T415 493Q423 504 424 514T429 532T446 539Q472 539 498 539T549 538Q564 538 564 525Q564 514 557 512T542 510Q527 510 511 504T483 490Q445 461
409 430T335 366Q345 349 365 314T412 236T465 152T514 81T550 40Q559 33 567 31T585 26Q595 23 595 15Z" />
<glyph unicode="l" glyph-name="l" horiz-adv-x="346" d="M319 13Q319 -3 303 -3Q272 -3 242 -1T181 2Q149 2 117 0T52 -3Q45 -3 42 2T39 14Q39 25 49 28T73 30T94 29Q116 29 116 53V134Q116 266 116 397T116 661Q116 672 114 688T95 705Q83 705 72 702T48 698Q33
698 33 714Q33 725 46 730Q59 734 73 736T101 741Q131 748 160 755T219 770Q222 771 225 771T231 772Q237 772 242 770T248 759Q248 583 247 406T246 53Q246 36 256 31T280 27T305 29Q319 29 319 13Z" />
<glyph unicode="m" glyph-name="m" horiz-adv-x="920" d="M905 12Q905 -4 888 -4Q859 -4 830 -2T772 1Q743 1 714 -1T654 -4Q648 -4 645 1T641 12Q641 27 659 27Q667 27 675 27T692 26Q704 26 706 33T708 51V348Q708 375 707 407T694 465Q685 487 672 495T635
504Q607 504 579 482T534 440Q538 420 538 400T539 359Q539 282 539 205T539 51Q539 39 543 32T561 25Q568 25 574 26T588 27Q603 27 603 12Q603 -4 586 -4Q558 -4 530 -2T472 1Q443 1 414 -1T356 -4Q349 -4 346 1T343 12Q343 23 352 25T372 27T390 26Q404 26 407
32T410 51Q410 125 410 199T409 348Q409 375 408 407T395 465Q385 488 371 495T333 502Q320 502 301 490T265 461T239 435Q239 339 239 243T239 51Q239 39 243 32T261 25Q268 25 275 26T289 27Q303 27 303 12Q303 -4 287 -4Q258 -4 230 -2T172 0Q142 0 113 -2T53
-4Q46 -4 43 1T39 12Q39 27 56 27Q64 27 72 27T90 26Q104 26 106 40T109 64Q109 159 109 254T109 444Q109 455 106 468T87 481Q76 481 65 480T42 478Q36 478 31 481T25 492Q25 499 29 502T38 506Q51 510 65 511T92 514Q104 517 126 523T171 534T201 540Q213 540
218 529Q225 518 228 504T235 476Q271 506 307 521T390 537Q428 537 464 522T520 473Q555 504 593 522T677 540Q746 540 780 521T825 463T837 359Q837 282 837 205T837 51Q837 35 845 30T866 26T890 27Q905 27 905 12Z" />
<glyph unicode="n" glyph-name="n" horiz-adv-x="632" d="M609 14Q609 -2 593 -2Q564 -2 535 -1T476 1Q448 1 419 0T361 -2Q354 -2 351 3T348 15Q348 30 364 30Q373 30 382 30T400 29Q415 29 415 42Q415 126 415 210T416 378Q416 405 412 434T392 483T341 503Q319
503 296 487T254 449T227 408V54Q227 45 229 37T243 29Q251 29 259 29T276 30Q281 30 286 26T291 17Q291 -2 275 -2Q247 -2 220 0T163 3Q133 3 103 1T41 -2Q34 -2 31 3T28 15Q28 30 44 30Q53 30 62 30T81 29Q95 29 97 35T99 54V199Q99 260 99 321T99 443Q99 454
96 467T78 481Q68 481 59 480T39 479Q33 479 26 481T18 492Q18 498 22 501T31 505Q41 508 52 509T73 512Q99 517 124 523T175 537Q179 539 183 540T191 542Q199 542 205 527T216 495T222 471Q251 497 292 517T373 538Q440 538 477 521T531 465T547 359Q547 281
546 203T545 47Q545 37 551 33T568 28Q575 28 581 29T595 30Q609 30 609 14Z" />
<glyph unicode="o" glyph-name="o" horiz-adv-x="620" d="M439 263Q439 296 435 338T416 421T376 487T304 514Q263 514 238 488T200 423T181 343T176 271Q176 238 180 196T199 113T240 47T312 21Q354 21 379 46T418 110T435 190T439 263ZM575 258Q575 181 540
122T445 28T307 -6Q230 -6 171 30T79 127T45 264Q45 343 78 405T171 504T311 541Q399 541 457 506T545 407T575 258Z" />
<glyph unicode="p" glyph-name="p" horiz-adv-x="608" d="M435 266Q435 287 434 316T429 377T414 436T384 481T335 498Q295 498 270 475T228 417V156Q228 131 237 102T267 52T317 31Q361 31 385 55T420 117T433 194T435 266ZM572 280Q572 199 545 137T462 39T320
3Q298 3 272 13T227 35Q227 13 227 -9T227 -55V-136Q227 -145 230 -154T245 -163Q253 -163 261 -163T278 -162Q292 -162 292 -177Q292 -193 277 -193Q249 -193 221 -191T164 -189Q135 -189 105 -191T46 -193Q39 -193 36 -188T33 -177Q33 -162 48 -162Q56 -162 64
-162T79 -163Q90 -163 95 -156T100 -138Q100 8 100 154T101 447Q101 458 98 471T80 484Q70 484 61 483T41 482Q35 482 28 484T20 495Q20 501 24 504T33 508Q44 512 56 513T79 516Q130 525 177 540Q181 542 185 543T193 545Q200 545 205 533T214 507T220 487Q234
495 260 505T312 524T354 533Q405 533 445 511T513 453T557 371T572 280Z" />
<glyph unicode="q" glyph-name="q" horiz-adv-x="608" d="M400 367Q400 398 390 431T358 486T299 509Q259 509 234 482T195 415T176 332T170 261Q170 234 176 197T197 122T236 61T294 36Q323 36 347 53T385 97T399 152Q399 205 399 259T400 367ZM591 -177Q591
-193 575 -193Q547 -193 520 -191T464 -188Q435 -188 405 -190T346 -193Q339 -193 336 -188T333 -177Q333 -161 349 -161Q357 -161 365 -162T380 -163Q391 -163 395 -156T400 -138V58Q378 29 345 16T276 3Q246 3 208 9T145 33Q92 70 66 130T39 254Q39 338 71 401T165
498T311 533Q330 533 353 527T398 509T432 482Q439 488 455 500T487 523T511 534Q518 534 523 531T528 520V459L527 -144Q527 -154 534 -158T550 -163Q557 -163 563 -163T577 -162Q591 -162 591 -177Z" />
<glyph unicode="r" glyph-name="r" horiz-adv-x="444" d="M443 419Q443 409 438 401T421 392Q404 392 398 406Q392 419 386 436T369 467T339 480Q329 480 320 476T303 466Q271 444 252 404T226 324V325Q226 288 226 251T226 177V54Q226 37 235 32T258 28T283 30Q297
30 297 15Q297 -1 281 -1Q251 -1 221 0T161 1Q130 1 99 0T36 -2Q29 -2 26 3T23 14Q23 29 39 29Q49 29 58 29T78 28Q90 28 94 36T98 54Q98 125 98 197T98 340Q98 359 98 378T98 416Q98 427 96 442T88 469T66 481Q56 481 47 479T26 476Q11 476 11 491Q11 502 22 506Q36
511 51 512T80 517Q93 520 114 525T155 535T187 540Q202 540 209 529Q212 524 215 506T220 468T222 441Q253 480 291 512T383 544Q397 544 412 539T432 517Q437 498 440 469T443 419Z" />
<glyph unicode="s" glyph-name="s" horiz-adv-x="446" d="M422 147Q422 100 402 71T349 25T278 3T201 -3Q176 -3 152 2T104 13Q94 15 83 17T61 20Q57 34 50 61T36 115T29 153Q29 164 36 167T51 170Q63 170 69 161Q84 140 93 117T121 74Q135 59 161 44T209 28Q254
28 276 49T299 116Q299 147 280 168T232 206T169 239T107 276T58 324T39 394Q39 445 67 477T138 524T226 539Q246 539 265 536T303 525Q312 522 327 518T352 513Q365 513 377 516Q379 488 383 460T389 404V401Q390 391 384 385T368 378Q358 378 354 382T345 394Q332
423 320 449T287 493T228 510Q188 510 169 479T150 413Q150 385 171 365T214 333Q241 319 276 302T345 263T400 213T422 147Z" />
<glyph unicode="t" glyph-name="t" horiz-adv-x="372" d="M371 48Q371 34 357 24T321 7T277 -3T240 -6Q165 -6 136 24T107 126Q107 212 108 298T109 470H63Q53 470 46 464T33 457Q23 457 23 467Q23 471 27 482T33 496Q36 502 39 503T48 504H110V611Q135 625 165
652T211 702Q214 707 219 712T231 718Q247 718 246 704L243 504H346Q354 504 360 501T367 488Q367 469 346 469H243L241 83Q241 67 247 53T273 38Q290 38 307 41T340 51Q345 53 349 55T359 58Q371 58 371 48Z" />
<glyph unicode="u" glyph-name="u" horiz-adv-x="628" d="M617 37Q617 29 607 23Q580 4 557 0T502 -4Q471 -4 450 22T423 76Q394 36 355 15T265 -7Q169 -7 129 37T89 176V243Q89 295 89 346T90 450Q90 461 87 474T69 487Q63 487 58 486T46 485Q39 485 30 487T21
498Q21 506 24 509T34 513Q45 516 58 517T82 519Q137 526 195 540Q201 542 206 542Q220 542 220 529Q220 443 218 357T216 184Q216 160 217 134T226 84T252 47T302 33Q336 33 364 59T405 114Q406 116 409 123T412 132Q412 212 412 291T411 450Q411 461 408 474T390
487Q384 487 378 486T365 485Q358 485 350 487T341 498Q341 506 344 509T354 513Q365 516 378 517T403 519Q459 527 514 540Q517 541 519 541T525 542Q540 542 540 529Q540 420 539 311T538 91Q538 81 539 69T546 47T566 37Q577 37 588 42T607 48Q612 48 614 45T617
37Z" />
<glyph unicode="v" glyph-name="v" horiz-adv-x="574" d="M583 525Q583 517 578 514T564 511Q560 511 555 511T548 511Q529 511 521 493Q517 483 513 471T505 448Q468 335 429 224T352 -1L228 -6Q204 68 181 142T133 292Q120 333 108 374T81 455Q71 480 56 483T17
487Q2 487 2 501Q2 509 5 512T15 516Q25 518 36 519T58 522Q80 525 101 528T145 535Q152 537 158 538T172 539Q186 539 191 526Q196 514 199 501T207 475L238 368Q261 289 284 210T331 50Q367 157 401 264T460 482Q461 487 461 491T462 501Q462 510 455 511T441
513H406Q398 513 394 515T389 527Q389 532 393 535T401 539Q425 539 449 539T497 538Q515 538 532 539T568 540Q574 540 578 536T583 525Z" />
<glyph unicode="w" glyph-name="w" horiz-adv-x="852" d="M849 524Q849 512 843 511T828 509Q815 509 802 507T781 489Q777 479 774 468T768 445Q737 333 704 222T637 -1L527 -5Q502 88 472 179T415 364Q386 272 353 182T290 -1L195 -5Q175 73 155 151T113 308Q103
348 93 388T71 468Q67 482 60 488T39 495Q32 495 26 494T12 493Q-1 493 -1 506Q-1 519 12 522Q13 522 29 524T68 528T114 534T155 538T174 540Q182 540 184 536T188 526Q197 492 204 458T219 388Q235 318 250 248T280 107Q309 208 341 309T405 510Q410 524 414
530T434 538Q441 539 448 539T463 540Q485 540 493 522Q498 511 500 499T505 475Q512 452 518 429T532 382Q553 310 574 239T618 95Q643 184 666 272T710 450Q712 463 715 475T719 501Q719 508 708 510T683 512T664 511Q648 511 648 524Q648 538 662 538H835Q849
538 849 524Z" />
<glyph unicode="x" glyph-name="x" horiz-adv-x="572" d="M576 14Q576 -2 560 -2Q539 -2 518 -1T476 0Q457 0 439 -1T402 -2Q392 -2 390 1T383 11Q372 34 360 56T334 100Q317 132 299 164T261 227Q230 181 200 136T140 44Q135 36 132 28T124 11Q119 0 105 0Q92
0 78 0T50 1Q40 1 31 0T10 -1Q6 -1 3 3T-1 12Q-1 23 7 24T24 25Q38 25 47 27T67 38Q82 50 106 78T156 141T204 206T236 255Q211 297 184 339T130 421Q120 438 109 454T85 486Q80 492 74 493T60 495Q50 495 40 494T20 492Q15 492 11 496T6 506Q6 518 17 521Q28 524
38 524Q71 528 109 534T179 541Q194 541 201 529Q206 522 210 513T218 495Q241 452 266 410T316 324Q324 335 341 360T378 415T411 469T425 502Q425 509 424 511T415 513Q408 513 401 513T385 512Q369 512 369 529Q369 534 373 537T382 540Q404 540 425 539T469
538Q490 538 512 538T555 539Q568 539 568 525Q568 512 558 512T538 511Q531 511 522 510T507 505Q495 497 486 486Q449 440 410 391T339 295Q361 260 383 225T428 154Q444 129 461 106T495 60Q503 50 510 43T530 31Q538 29 549 29T568 27T576 14Z" />
<glyph unicode="y" glyph-name="y" horiz-adv-x="594" d="M601 521Q601 507 587 507T563 506Q550 506 542 498T529 478Q490 394 450 311T372 144Q347 86 320 28T263 -88Q255 -104 247 -120T228 -154Q210 -182 184 -194T125 -207Q91 -207 64 -187T37 -129Q37 -106
54 -92T94 -77Q105 -77 113 -81Q112 -109 122 -120T160 -132Q169 -132 178 -128T194 -118Q203 -111 215 -94T238 -57T251 -26Q252 -21 253 -15T254 -4Q254 25 240 70T206 167T165 263T133 339Q120 373 106 407T71 472Q60 489 46 491T13 493Q9 493 5 496T0 504Q0
518 13 521Q41 526 71 528T130 535Q141 537 151 538T172 539Q186 539 191 534T200 517Q214 487 225 456T248 393Q269 334 292 274T334 153Q342 171 357 207T391 288T427 377T455 455T466 504Q466 509 460 509T451 510Q441 510 431 510T409 509Q401 509 395 511T389
523Q389 535 395 536T410 537Q454 537 498 537T586 538Q601 538 601 521Z" />
<glyph unicode="z" glyph-name="z" horiz-adv-x="480" d="M477 171Q477 151 473 130T466 89Q465 73 463 51T458 14Q457 2 445 2Q383 2 321 3T196 4Q153 4 109 3T21 1Q14 1 9 6T4 18Q4 21 12 32T31 58T51 84T64 101Q83 130 103 158T143 215Q182 275 220 337T293
462Q297 468 300 474T303 488Q303 502 287 504Q277 506 265 506T242 506Q222 506 200 505T158 501Q130 497 115 484T88 446Q82 433 78 420T68 392Q66 385 63 379T51 373Q36 373 36 391V394Q37 417 38 439T41 484Q42 495 42 506T44 527Q45 537 55 537Q62 537 69
535T83 532Q119 532 156 532T229 531Q270 531 311 531T393 533Q410 534 427 535T462 536Q472 536 472 523Q472 516 468 511Q453 487 436 463T402 415Q372 372 341 328T282 239Q275 228 258 203T222 147T188 93T174 59Q174 40 181 36T205 32H241Q277 31 319 37T389
69Q409 89 424 115T447 166Q449 171 451 176T460 182Q465 182 471 180T477 171Z" />
<glyph unicode="{" glyph-name="braceleft" horiz-adv-x="450" d="M352 -98Q315 -93 275 -75T208 -25T180 51Q180 103 181 155T182 259Q182 348 99 378Q182 410 182 498Q182 551 181 603T180 708Q180 752 207 783T275 834T352 858V842Q317 831 300 807T278 751T272
687Q272 638 272 590T272 494Q272 468 250 443T207 405Q197 398 188 395T167 386Q163 384 159 382T149 378Q154 377 158 375T167 371Q186 364 210 347T253 309T272 263Q272 216 272 168T272 72Q272 39 277 8T300 -46T352 -82V-98Z" />
<glyph unicode="|" glyph-name="bar" horiz-adv-x="250" d="M160 -69H90V807H160V-69Z" />
<glyph unicode="}" glyph-name="braceright" horiz-adv-x="450" d="M351 378Q268 348 268 259Q268 207 269 155T270 51Q270 7 243 -24T176 -74T98 -98V-82Q134 -70 151 -47T173 8T178 72Q178 120 178 168T179 263Q179 287 197 308T240 347T283 371Q288 373 292
375T302 378Q297 380 293 382T283 386Q273 391 263 394T243 405Q223 418 201 443T179 494Q179 542 179 590T178 687Q178 720 173 751T150 806T98 842V858Q136 853 175 834T242 784T270 708Q270 656 269 604T268 498Q268 410 351 378Z" />
<glyph unicode="~" glyph-name="asciitilde" horiz-adv-x="700" d="M665 310Q634 273 591 250T499 226Q453 226 411 243T329 283T254 323T185 341Q147 341 112 326T46 289L24 321Q44 343 72 362T132 395T194 408Q243 408 285 391T367 352T444 312T521 295Q556
295 587 311T645 348L665 310Z" />
<glyph unicode="&#xa0;" glyph-name="uni00A0" horiz-adv-x="250" />
<glyph unicode="&#xa1;" glyph-name="exclamdown" horiz-adv-x="400" d="M280 -148Q280 -178 254 -195T200 -213Q184 -213 165 -205T133 -182T120 -148Q120 -128 123 -108T129 -68Q143 36 157 139T184 347H219Q227 243 240 139T270 -68Q273 -88 276 -108T280 -148ZM278
482Q278 451 255 430T201 408Q170 408 147 429T123 482Q123 514 146 535T201 557Q232 557 255 536T278 482Z" />
<glyph unicode="&#xa2;" glyph-name="cent" horiz-adv-x="700" d="M330 604Q287 582 264 542T231 454T222 362Q222 322 232 277T265 194T330 138V604ZM603 232Q603 228 601 224T597 215Q587 199 568 180T533 149Q503 127 464 114T387 96V-20H330V97Q259 106 203
138T116 224T84 355Q84 428 115 489T201 590T330 638V755H387V638Q413 637 430 632T471 617Q478 614 491 607T509 600Q522 600 532 609T552 619Q558 619 560 615T563 606Q565 596 565 586T565 566Q566 541 567 517T569 468Q569 455 565 445T544 435Q528 435 520
453Q507 493 494 525T457 579T387 612V132Q421 136 460 152T523 192Q535 204 544 216T564 242Q571 252 582 252Q590 252 596 246T603 232Z" />
<glyph unicode="&#xa3;" glyph-name="sterling" horiz-adv-x="700" d="M193 110Q189 113 178 114T160 116Q143 116 126 105T108 74Q108 64 119 62T138 59Q159 59 172 76T193 110ZM649 127Q649 113 638 90T617 54Q592 19 559 6T483 -7Q421 -7 365 18T256 75Q235
44 202 24T130 3Q112 3 93 7T61 24T48 59Q48 91 70 109T123 135T179 143Q185 143 191 143T203 141Q207 156 208 171T209 201Q209 251 204 289T189 377H66V417H182Q177 447 173 477T168 538Q168 599 195 643T269 712T376 737Q423 737 465 722Q489 715 512 706T560
695Q562 661 569 626T577 556Q577 543 568 536T546 528Q536 528 527 531T513 543Q510 549 510 555T507 568Q502 597 487 626T448 676T390 696Q353 696 330 673T297 617T286 552Q286 518 290 485T299 417H508V377H307Q311 355 312 334T313 292Q313 249 306 206T281
122Q307 112 344 101T419 81T484 73Q519 73 553 79T615 108Q620 112 629 123T643 134Q649 134 649 127Z" />
<glyph unicode="&#xa4;" glyph-name="currency" horiz-adv-x="550" d="M442 317Q442 362 421 402T364 467T281 492Q235 492 199 467T141 402T120 317Q120 273 141 233T199 167T282 141Q328 141 364 167T421 233T442 317ZM507 525L447 461Q473 427 485 394T498
317Q498 272 486 240T447 171L507 110L471 71L408 137Q377 118 348 108T282 97Q241 97 208 109T142 146L81 82L44 121L106 185Q85 216 74 247T62 317Q62 357 73 387T106 449L43 514L80 551L142 488Q175 514 207 525T281 536Q349 536 408 497L471 563L507 525Z"
/>
<glyph unicode="&#xa5;" glyph-name="yen" horiz-adv-x="700" d="M678 715Q678 703 669 700T647 697T621 696T600 686Q593 679 583 663T563 632T549 607Q519 560 491 512T431 416H628V376H409V274H628V233H409V56Q409 42 420 37T443 32Q452 32 461 33T478 34Q487
34 494 29T502 14Q502 4 493 1T475 -3Q463 -3 451 -2T425 0Q412 1 399 1T371 1Q346 1 320 1T268 -1Q256 -1 244 -2T219 -3Q213 -3 207 3T200 16Q200 24 206 29T220 34Q228 34 236 34T253 33Q280 33 285 41T290 75V233H79V274H290V376H79V416H274Q240 484 201 548T119
676Q112 686 106 693T87 700Q78 700 70 700T53 699Q46 699 41 703T35 715Q35 723 42 727T57 732Q94 732 131 732T205 731Q213 731 220 730T232 720Q234 717 235 714T238 708Q270 635 305 564T376 422Q383 432 399 460T437 523T477 594T509 654T522 687Q522 697
518 699T505 702Q494 702 484 702T462 701Q452 701 447 703T441 717Q441 727 448 729T463 732Q489 732 514 732T565 731Q589 731 612 732T660 734Q678 734 678 715Z" />
<glyph unicode="&#xa6;" glyph-name="brokenbar" horiz-adv-x="400" d="M244 -91H156V334H244V-91ZM244 423H156V849H244V423Z" />
<glyph unicode="&#xa7;" glyph-name="section" horiz-adv-x="650" d="M447 349Q447 387 423 410T366 449T305 477Q279 474 253 464T210 436T192 386Q192 356 210 335T255 298T311 273T363 254Q401 263 424 285T447 349ZM545 362Q545 325 523 300T469 259T407 232Q441
217 471 195T520 142T539 70Q539 30 520 2T470 -43T403 -68T333 -76Q295 -76 255 -72T179 -50T121 2Q115 12 110 23T105 47Q105 72 115 88T154 105Q172 105 186 96T204 69Q206 59 206 50T210 30Q218 7 238 -10T283 -37T331 -47Q379 -47 412 -16T446 64Q446 96 427
120T381 162Q354 179 323 193Q293 207 258 220T191 251T140 297T120 366Q120 400 139 428T188 476T250 500Q218 514 190 533T145 581T128 647Q128 694 155 726T225 774T308 791Q337 791 369 786T430 767T478 730Q489 717 498 700T508 664Q508 637 490 623T445 609Q435
609 424 616T409 633Q407 639 406 646T404 660Q400 698 377 728T312 758Q269 758 241 727T213 654Q213 619 237 597T299 557T379 525T459 489T521 438T545 362Z" />
<glyph unicode="&#xa8;" glyph-name="dieresis" horiz-adv-x="500" d="M205 719Q205 695 186 678T143 661Q121 661 101 678T81 719Q81 742 101 759T143 776Q166 776 185 759T205 719ZM419 719Q419 695 400 678T357 661Q335 661 315 678T295 719Q295 742 315 759T357
776Q380 776 399 759T419 719Z" />
<glyph unicode="&#xa9;" glyph-name="copyright" horiz-adv-x="740" d="M545 256Q545 253 542 247Q526 222 499 203T439 172T377 161Q320 161 277 185T209 252T185 351Q185 409 208 455T274 528T377 556Q394 556 411 552T445 541Q448 540 453 538T463 534Q475
529 479 529Q484 529 494 533T512 543Q514 521 515 502T517 464Q518 456 518 447T519 430Q519 418 511 413T492 408Q477 408 471 419Q469 423 469 426Q469 428 469 430T468 433Q463 453 452 475T425 513T385 529Q356 529 336 512T304 467T285 410T279 356Q279 332
284 305T302 254T333 214T381 198Q413 198 438 209T481 234Q499 249 510 260Q524 272 528 272Q533 272 539 268T545 256ZM665 375Q665 436 642 489T578 582T484 644T370 667Q309 667 256 645T162 582T98 489T75 375Q75 314 98 261T161 168T255 106T370 83Q430 83
483 105T578 168T642 261T665 375ZM696 374Q696 307 671 249T600 146T496 76T370 51Q303 51 244 76T140 145T70 248T44 374Q44 442 69 500T140 603T244 672T370 697Q437 697 496 672T600 603T670 501T696 374Z" />
<glyph unicode="&#xaa;" glyph-name="ordfeminine" horiz-adv-x="390" d="M242 473Q241 502 241 530T239 586Q215 585 190 573T147 541T130 493Q130 471 140 453T176 434Q194 434 213 446T242 473ZM367 432Q367 431 367 430T366 429Q359 414 342 406T309 398Q257
398 245 446Q226 425 204 413T152 400Q114 400 86 420T58 481Q58 518 82 543T137 581Q161 592 187 597T239 609Q239 629 238 648T228 686Q223 698 215 710T192 722Q170 722 155 705T137 667Q136 663 136 660T136 652Q134 645 125 643T110 641Q98 641 87 648T75
668Q75 672 75 675T77 682Q82 698 100 712T133 732Q164 743 199 743Q251 743 281 713T311 631V496Q311 483 311 471T312 446Q313 438 314 430T327 421Q338 421 347 429T360 438Q367 438 367 432Z" />
<glyph unicode="&#xab;" glyph-name="guillemetleft" horiz-adv-x="500" d="M284 442L117 250L284 56H199L41 250L199 442H284ZM461 442L292 250L461 56H374L217 250L374 442H461Z" />
<glyph unicode="&#xac;" glyph-name="logicalnot" horiz-adv-x="580" d="M512 127H457V334H50V375H512V127Z" />
<glyph unicode="&#xad;" glyph-name="softhyphen" horiz-adv-x="750" d="M679 333H72V392H679V333Z" />
<glyph unicode="&#xae;" glyph-name="registered" horiz-adv-x="740" d="M441 469Q441 503 429 518T394 537T343 542Q336 542 323 541T310 530Q310 496 309 463T308 395Q323 392 338 392Q364 392 387 398T426 422T441 469ZM572 189Q572 181 567 178T554 172Q550
171 547 171T540 171Q536 171 533 171T528 171Q521 171 515 171T503 171Q497 171 492 171T481 173Q471 176 462 182T445 202Q420 243 396 284T348 368H310V208Q310 201 317 200T329 198Q335 198 341 198T352 199Q359 199 360 195T362 185Q362 173 349 173H205Q201
173 198 179T195 187Q195 193 199 195T207 199Q209 199 211 199T216 199Q218 199 220 199T224 199Q227 199 231 199T238 201Q244 203 244 209V531Q244 540 232 542Q229 542 226 542T220 542Q217 542 214 542T209 542Q202 542 200 547T198 556Q198 563 203 566Q205
567 208 567T213 567Q230 567 246 566T279 565Q304 565 328 567T377 570Q405 570 436 562T489 533T511 477Q511 429 481 406T408 374Q432 335 457 297T511 223Q519 213 528 207T549 199Q551 198 554 198T562 198Q565 197 568 196T572 189ZM665 375Q665 436 642
489T578 582T484 644T370 667Q309 667 256 645T162 582T98 489T75 375Q75 314 98 261T161 168T255 106T370 83Q430 83 483 105T578 168T642 261T665 375ZM696 374Q696 307 671 249T600 146T496 76T370 51Q303 51 244 76T140 145T70 248T44 374Q44 442 69 500T140
603T244 672T370 697Q437 697 496 672T600 603T670 501T696 374Z" />
<glyph unicode="&#xaf;" glyph-name="overscore" horiz-adv-x="500" d="M379 680H121V731H379V680Z" />
<glyph unicode="&#xb0;" glyph-name="degree" horiz-adv-x="350" d="M262 688Q262 724 236 749T175 774Q139 774 114 749T88 688Q88 652 113 627T175 602Q210 602 236 627T262 688ZM293 688Q293 656 277 630T234 588T175 572Q143 572 117 587T74 629T58 688Q58
720 73 746T116 789T175 805Q207 805 234 790T277 748T293 688Z" />
<glyph unicode="&#xb1;" glyph-name="plusminus" horiz-adv-x="750" d="M668 45H83V100H668V45ZM668 401H403V164H347V401H83V456H347V664H403V456H668V401Z" />
<glyph unicode="&#xb2;" glyph-name="twosuperior" horiz-adv-x="390" d="M353 480Q353 473 346 454T337 425Q334 415 332 404T328 382Q323 378 315 378Q302 378 289 379T261 380Q208 380 155 378T49 376Q45 376 39 378T33 386Q33 413 51 442T97 499T151 551T197
593Q218 613 234 639T251 696Q251 714 246 734T228 767T193 781Q187 781 177 779T160 773Q139 764 131 750T120 720T116 690T107 667T81 658Q66 658 53 668T39 694Q39 723 55 744T97 778T151 797T204 803Q236 803 266 792T316 757T336 698Q336 659 321 633T282
588T230 553T175 518Q165 511 147 496T112 464T91 437Q89 431 89 428Q91 426 92 426Q127 426 163 426T234 429Q268 431 284 440T306 461T318 481T335 490Q339 490 346 488T353 480Z" />
<glyph unicode="&#xb3;" glyph-name="threesuperior" horiz-adv-x="390" d="M345 515Q345 463 319 431T252 385T164 371Q134 371 104 380T57 417Q53 425 51 433T48 450Q48 464 60 474T86 485Q101 485 107 476T116 454T125 428T142 405T180 396Q210 396 229 414T257
459T266 512Q266 544 247 570T194 597Q180 597 167 594T140 591Q135 591 129 595T122 605Q122 616 131 619T152 622T170 621Q209 621 228 646T247 707Q247 725 241 744T222 777T188 790Q163 790 146 772T123 730Q122 723 122 717T119 703Q117 695 112 689T96 683Q82
683 67 694T51 721Q51 732 56 742T68 761Q92 791 128 802T200 813Q232 813 260 803T306 770T324 712Q324 675 298 650T241 612Q284 609 314 586T345 515Z" />
<glyph unicode="&#xb4;" glyph-name="acute" horiz-adv-x="500" d="M393 724L132 644L107 688L360 792L393 724Z" />
<glyph unicode="&#xb5;" glyph-name="micro" horiz-adv-x="600" d="M593 41Q593 32 582 25T554 13T522 5T500 2Q466 2 444 22T414 75Q383 37 342 19T251 1Q225 1 199 7T153 31Q151 -9 149 -49T143 -130Q142 -141 139 -149T125 -162Q119 -165 107 -166T88 -167Q75
-167 58 -162T40 -140Q40 -140 45 -126T51 -109Q57 -87 61 -65T69 -21Q88 108 88 237T89 496Q89 511 75 511Q65 511 56 510T38 508Q34 508 29 510T23 518Q23 529 28 532T42 537Q58 539 75 540T108 543Q126 544 144 545T181 547Q193 547 197 542T201 525Q201 437
200 349T199 171Q199 153 200 133T208 95Q218 70 242 59T291 47Q334 47 368 75T407 147Q409 161 409 175T409 203Q409 275 408 346T407 490Q407 498 405 505T393 512Q382 512 371 510T349 508Q333 508 333 522Q333 530 341 532T355 536Q375 539 395 541T436 546Q453
548 470 549T504 551Q509 551 513 549T518 540Q518 430 518 320T517 98Q517 86 518 72T526 49T550 39Q560 39 569 44T585 49Q593 49 593 41Z" />
<glyph unicode="&#xb6;" glyph-name="paragraph" horiz-adv-x="800" d="M635 761H563V-44H499V761H428V-44H366V439Q314 444 268 462T194 516T165 613Q165 659 186 693T245 752Q275 772 315 784T390 796H635V761Z" />
<glyph unicode="&#xb7;" glyph-name="middot" horiz-adv-x="300" d="M229 308Q229 275 206 252T150 229Q117 229 94 252T71 308Q71 341 94 364T150 387Q183 387 206 364T229 308Z" />
<glyph unicode="&#xb8;" glyph-name="cedilla" horiz-adv-x="500" d="M367 -98Q367 -125 352 -141T313 -164T264 -174T219 -177Q198 -177 175 -170T131 -154Q124 -151 109 -141T93 -123Q93 -117 98 -115T108 -112Q115 -112 125 -116T142 -122Q180 -133 217 -133Q227
-133 245 -130T277 -120T292 -99Q292 -88 283 -82T261 -73T239 -70Q217 -70 193 -77T147 -91Q163 -60 177 -29T205 33L256 26Q246 9 236 -8T214 -43Q238 -40 262 -40Q282 -40 306 -43T349 -59T367 -98Z" />
<glyph unicode="&#xb9;" glyph-name="onesuperior" horiz-adv-x="390" d="M335 386Q335 375 323 375H295Q276 375 258 375T221 376Q203 376 186 376T150 375H124Q113 375 113 386Q113 400 125 400Q135 400 145 400T165 399Q176 399 180 407T185 425V763Q182 762
168 758T138 748T109 740T96 736Q92 736 89 741T85 750Q85 758 87 762T98 768Q130 776 166 787T232 812Q242 817 252 817Q259 817 260 813T262 804Q262 755 261 706T260 608V425Q260 412 264 406T282 399Q292 399 302 399T322 400Q335 400 335 386Z" />
<glyph unicode="&#xba;" glyph-name="ordmasculine" horiz-adv-x="390" d="M273 567Q273 587 271 612T260 660T235 699T192 714Q167 714 152 698T128 658T116 609T113 565Q113 544 116 520T127 473T152 437T196 423Q222 423 237 438T260 475T270 523T273 567ZM354
564Q354 517 334 480T278 420T193 398Q146 398 111 420T56 479T36 563Q36 610 55 650T111 715T196 740Q277 740 315 690T354 564Z" />
<glyph unicode="&#xbb;" glyph-name="guillemetright" horiz-adv-x="500" d="M285 250L129 56H41L211 250L41 442H129L285 250ZM461 250L304 56H218L386 250L218 442H304L461 250Z" />
<glyph unicode="&#xbc;" glyph-name="onequarter" horiz-adv-x="1000" d="M646 101H781Q781 151 781 199T782 297L646 101ZM368 366Q368 355 356 355H328Q309 355 291 355T254 356Q236 356 219 356T183 355H157Q146 355 146 366Q146 380 158 380Q168 380 178 380T198
379Q209 379 213 387T218 405V743Q215 742 201 738T171 728T142 720T129 716Q125 716 122 721T118 730Q118 738 120 742T131 748Q163 756 199 767T265 792Q275 797 285 797Q292 797 293 793T295 784Q295 735 294 686T293 588V405Q293 392 297 386T315 379Q325 379
335 379T355 380Q368 380 368 366ZM845 808L214 -103L178 -76L810 832L845 808ZM939 133Q939 123 934 101T925 68H855V-12Q855 -29 865 -32T890 -33T914 -32T925 -46Q925 -58 912 -58Q889 -58 866 -57T819 -55Q796 -55 773 -56T727 -58Q715 -58 715 -46Q715 -34
725 -33T748 -32T771 -31T781 -12V68H603Q597 68 595 73T592 83Q592 91 597 98Q614 125 632 150T669 201Q701 248 733 293T800 385Q806 393 816 399T836 406Q856 406 856 384V101H879Q899 101 907 110T920 129T931 139Q939 139 939 133Z" />
<glyph unicode="&#xbd;" glyph-name="onehalf" horiz-adv-x="1000" d="M381 359Q381 346 368 346Q343 346 318 347T267 349Q242 349 217 348T167 346Q156 346 156 359Q156 371 168 371Q178 371 188 371T208 370Q219 370 223 378T228 396V743Q220 742 200 735T162
722T139 715Q132 715 130 722T128 735Q128 741 132 743T141 747Q166 753 191 760T240 777Q250 781 269 788T298 796Q305 796 306 792T308 783V700Q308 672 307 644T306 587V396Q306 383 310 377T328 370Q338 370 348 370T368 371Q381 371 381 359ZM845 808L214
-103L178 -76L810 832L845 808ZM930 55Q930 47 923 28T914 -2Q911 -12 909 -23T905 -45Q899 -49 893 -49Q880 -49 867 -48T839 -47Q802 -47 765 -48T689 -50Q673 -50 658 -51T626 -52Q622 -52 616 -49T610 -41Q610 -13 628 16T673 75T727 129T774 172Q796 194 812
221T829 280Q829 298 824 318T806 353T770 368Q764 368 754 365T737 360Q716 351 708 336T697 305T693 274T684 250T658 240Q642 240 629 250T616 277Q616 307 632 329T673 364T727 384T781 391Q814 391 844 379T894 343T913 282Q913 242 899 215T860 168T808 131T752
94Q743 87 724 71T689 38T668 11Q666 3 665 0Q702 0 738 0T812 3Q846 5 862 14T884 36T895 56T912 65Q916 65 923 63T930 55Z" />
<glyph unicode="&#xbe;" glyph-name="threequarters" horiz-adv-x="1000" d="M772 102V298L636 102H772ZM408 484Q408 435 382 401T314 350T227 332Q197 332 160 343T105 382Q101 389 97 398T92 416Q92 433 106 446T137 459Q148 459 151 452T156 436Q158 427 160
419T166 402Q175 384 193 373T230 361Q263 361 284 379T315 424T325 481Q325 515 303 541T245 567Q231 567 217 564T188 561Q183 561 178 565T173 576Q173 581 177 586T187 591H221Q261 591 283 616T305 680Q305 709 289 736T239 763Q213 763 193 745T167 702Q165
694 164 683T159 663T140 654Q127 654 111 666T94 693Q94 715 111 734Q137 765 175 776T250 788Q283 788 314 778T365 745T385 684Q385 646 356 620T295 582Q339 579 373 556T408 484ZM824 792L192 -119L156 -92L789 816L824 792ZM929 132Q929 124 924 102T916
69H845V-11Q845 -28 855 -31T880 -32T904 -31T915 -45Q915 -58 903 -58Q880 -58 857 -57T810 -55Q787 -55 764 -56T717 -58Q706 -58 706 -45Q706 -33 716 -32T739 -31T762 -30T772 -11V69H593Q589 69 586 73T582 80Q582 91 588 99Q638 171 688 243T790 385Q796
393 806 400T826 407Q846 407 846 384V102H869Q890 102 898 111T910 129T921 139Q929 139 929 132Z" />
<glyph unicode="&#xbf;" glyph-name="questiondown" horiz-adv-x="560" d="M508 -29Q508 -47 503 -64T488 -98Q455 -157 396 -182T271 -207Q218 -207 168 -191T85 -138T52 -39Q52 -2 72 34T120 92Q149 115 173 127T216 156T251 213Q261 239 263 278T266 346H300Q303
326 305 305T307 264Q307 243 306 222T300 180Q293 148 279 127T248 88T216 51T192 4T182 -65Q182 -110 203 -145T276 -180Q322 -180 355 -152T388 -76Q388 -62 383 -50T378 -24Q378 8 401 20T453 33Q479 33 493 14T508 -29ZM352 481Q352 451 330 429T278 407Q248
407 226 429T204 481Q204 511 226 533T278 555Q308 555 330 533T352 481Z" />
<glyph unicode="&#xc0;" glyph-name="Agrave" horiz-adv-x="774" d="M463 297Q435 382 406 466T349 635Q320 550 292 466T234 297H463ZM763 10Q763 -5 744 -5Q738 -5 732 -5T719 -4Q694 -2 668 -2T615 -2Q582 -2 549 -2T482 -4Q478 -5 474 -5T466 -5Q452 -5 452
9Q452 21 460 23T480 25T498 24Q516 24 524 31T533 58Q533 69 526 96T509 157T490 218T476 259H221Q219 253 212 232T196 183T177 128T162 82T156 58Q156 39 166 32T191 25T220 24Q225 24 228 18T231 6Q231 0 227 -3T217 -6Q184 -6 152 -5T87 -3Q71 -3 55 -4T22
-5Q17 -5 12 -1T7 8Q7 19 15 22T33 25T51 24Q64 24 72 34T85 55Q144 203 197 352T300 653Q304 664 310 684T316 714Q316 720 314 724T311 733Q311 737 321 739T342 742T356 743Q377 746 397 749T439 754L684 63Q692 39 705 33T742 26Q751 26 757 24T763 10ZM527
827L513 775L240 829L259 905L527 827Z" />
<glyph unicode="&#xc1;" glyph-name="Aacute" horiz-adv-x="774" d="M463 297Q435 382 406 466T349 635Q320 550 292 466T234 297H463ZM763 10Q763 -5 744 -5Q738 -5 732 -5T719 -4Q694 -2 668 -2T615 -2Q582 -2 549 -2T482 -4Q478 -5 474 -5T466 -5Q452 -5 452
9Q452 21 460 23T480 25T498 24Q516 24 524 31T533 58Q533 69 526 96T509 157T490 218T476 259H221Q219 253 212 232T196 183T177 128T162 82T156 58Q156 39 166 32T191 25T220 24Q225 24 228 18T231 6Q231 0 227 -3T217 -6Q184 -6 152 -5T87 -3Q71 -3 55 -4T22
-5Q17 -5 12 -1T7 8Q7 19 15 22T33 25T51 24Q64 24 72 34T85 55Q144 203 197 352T300 653Q304 664 310 684T316 714Q316 720 314 724T311 733Q311 737 321 739T342 742T356 743Q377 746 397 749T439 754L684 63Q692 39 705 33T742 26Q751 26 757 24T763 10ZM530
828L258 774L244 826L511 904L530 828Z" />
<glyph unicode="&#xc2;" glyph-name="Acircumflex" horiz-adv-x="774" d="M463 297Q435 382 406 466T349 635Q320 550 292 466T234 297H463ZM763 10Q763 -5 744 -5Q738 -5 732 -5T719 -4Q694 -2 668 -2T615 -2Q582 -2 549 -2T482 -4Q478 -5 474 -5T466 -5Q452
-5 452 9Q452 21 460 23T480 25T498 24Q516 24 524 31T533 58Q533 69 526 96T509 157T490 218T476 259H221Q219 253 212 232T196 183T177 128T162 82T156 58Q156 39 166 32T191 25T220 24Q225 24 228 18T231 6Q231 0 227 -3T217 -6Q184 -6 152 -5T87 -3Q71 -3 55
-4T22 -5Q17 -5 12 -1T7 8Q7 19 15 22T33 25T51 24Q64 24 72 34T85 55Q144 203 197 352T300 653Q304 664 310 684T316 714Q316 720 314 724T311 733Q311 737 321 739T342 742T356 743Q377 746 397 749T439 754L684 63Q692 39 705 33T742 26Q751 26 757 24T763 10ZM564
816L555 771L385 826L221 773L210 818L387 901L564 816Z" />
<glyph unicode="&#xc3;" glyph-name="Atilde" horiz-adv-x="774" d="M463 297Q435 382 406 466T349 635Q320 550 292 466T234 297H463ZM763 10Q763 -5 744 -5Q738 -5 732 -5T719 -4Q694 -2 668 -2T615 -2Q582 -2 549 -2T482 -4Q478 -5 474 -5T466 -5Q452 -5 452
9Q452 21 460 23T480 25T498 24Q516 24 524 31T533 58Q533 69 526 96T509 157T490 218T476 259H221Q219 253 212 232T196 183T177 128T162 82T156 58Q156 39 166 32T191 25T220 24Q225 24 228 18T231 6Q231 0 227 -3T217 -6Q184 -6 152 -5T87 -3Q71 -3 55 -4T22
-5Q17 -5 12 -1T7 8Q7 19 15 22T33 25T51 24Q64 24 72 34T85 55Q144 203 197 352T300 653Q304 664 310 684T316 714Q316 720 314 724T311 733Q311 737 321 739T342 742T356 743Q377 746 397 749T439 754L684 63Q692 39 705 33T742 26Q751 26 757 24T763 10ZM552
859Q528 834 507 812T447 790Q420 790 397 801T354 823T319 834Q311 834 299 824T277 801T261 781L222 807Q245 840 269 866T338 892Q363 892 384 882T424 861T462 850Q477 850 493 867T519 895L552 859Z" />
<glyph unicode="&#xc4;" glyph-name="Adieresis" horiz-adv-x="774" d="M463 297Q435 382 406 466T349 635Q320 550 292 466T234 297H463ZM763 10Q763 -5 744 -5Q738 -5 732 -5T719 -4Q694 -2 668 -2T615 -2Q582 -2 549 -2T482 -4Q478 -5 474 -5T466 -5Q452 -5
452 9Q452 21 460 23T480 25T498 24Q516 24 524 31T533 58Q533 69 526 96T509 157T490 218T476 259H221Q219 253 212 232T196 183T177 128T162 82T156 58Q156 39 166 32T191 25T220 24Q225 24 228 18T231 6Q231 0 227 -3T217 -6Q184 -6 152 -5T87 -3Q71 -3 55 -4T22
-5Q17 -5 12 -1T7 8Q7 19 15 22T33 25T51 24Q64 24 72 34T85 55Q144 203 197 352T300 653Q304 664 310 684T316 714Q316 720 314 724T311 733Q311 737 321 739T342 742T356 743Q377 746 397 749T439 754L684 63Q692 39 705 33T742 26Q751 26 757 24T763 10ZM341
819Q341 794 320 778T276 762Q254 762 233 778T212 819Q212 843 233 859T276 876Q299 876 320 860T341 819ZM562 819Q562 794 542 778T498 762Q475 762 454 778T433 819Q433 843 454 859T498 876Q521 876 541 860T562 819Z" />
<glyph unicode="&#xc5;" glyph-name="Aring" horiz-adv-x="774" d="M462 297Q434 379 405 460T349 623Q321 541 293 460T235 297H462ZM446 826Q446 852 429 868T386 885Q362 885 344 869T325 826Q325 801 343 786T386 771Q410 771 428 786T446 826ZM763 10Q763
-5 744 -5Q738 -5 732 -5T719 -4Q694 -2 668 -2T615 -2Q582 -2 549 -2T482 -4Q478 -5 474 -5T466 -5Q452 -5 452 9Q452 21 460 23T480 25T498 24Q516 24 524 31T533 58Q533 69 526 96T508 157T488 218T474 259H222Q220 253 213 232T196 183T177 128T162 82T156
58Q156 39 166 32T191 25T220 24Q225 24 228 18T231 6Q231 0 227 -3T217 -6Q184 -6 152 -5T87 -3Q71 -3 55 -4T22 -5Q17 -5 12 -1T7 8Q7 19 15 22T33 25T51 24Q64 24 72 34T85 55Q143 200 197 346T300 641Q304 652 310 672T316 702Q316 708 314 712T311 721Q311
726 317 726Q328 728 339 728T361 729Q381 731 401 733T440 738L684 63Q692 39 705 33T742 26Q751 26 757 24T763 10ZM475 826Q475 789 448 767T386 744Q350 744 324 766T297 826Q297 863 323 887T386 912Q421 912 448 888T475 826Z" />
<glyph unicode="&#xc6;" glyph-name="AE" horiz-adv-x="930" d="M456 371V672Q456 677 451 680T441 684Q406 606 370 528T299 371H456ZM901 178Q901 158 898 138T893 98Q891 78 890 58T885 17Q883 4 877 0T856 -4Q772 -4 688 -3T519 -1Q486 -1 453 -3T386 -6Q379
-6 373 0T367 14Q367 27 376 30T398 33T425 35T448 48T457 83L456 328H280Q276 319 262 289T230 219T195 141T166 76T154 46Q154 33 165 31T185 29Q195 29 204 30T224 31Q231 31 237 27T244 15Q244 6 238 3T224 -1Q193 -1 162 -1T100 0Q81 0 62 -1T23 -2Q7 -2 7
17Q7 25 13 28T27 31Q33 31 38 31T50 30Q64 30 70 38T82 57Q87 65 91 73T99 90Q171 239 241 388T378 689Q368 689 358 689T337 688Q326 688 321 695T316 713Q316 721 322 728T335 735Q362 735 389 734T444 733H584Q626 733 668 733T752 735Q781 736 809 736T866
739Q870 708 875 678T886 618Q888 612 889 607T890 595Q890 570 867 570Q855 570 850 574T839 588Q823 626 807 649T764 682T695 693H581V401Q610 401 638 401T695 406Q724 410 752 418T809 426Q812 426 815 422T819 415Q819 412 816 401T809 380T803 367Q791 353
775 353Q758 353 740 356Q714 358 688 359T635 361Q615 361 598 353T581 321V79Q581 49 595 43T634 37H718Q750 37 769 44T808 76Q826 98 837 123T861 173Q865 181 870 186T884 192Q901 192 901 178Z" />
<glyph unicode="&#xc7;" glyph-name="Ccedilla" horiz-adv-x="725" d="M706 163Q706 158 702 149T694 135Q681 112 659 90T614 52Q568 19 518 9T411 -2Q399 -2 387 -2T362 0Q353 -14 343 -28T323 -57Q334 -55 344 -55T364 -55Q384 -55 409 -58T452 -74T471 -114Q471
-142 456 -158T418 -182T369 -192T323 -195Q301 -195 277 -188T232 -171Q225 -167 210 -158T195 -140Q195 -134 203 -132T215 -129Q226 -129 235 -133T253 -140Q284 -150 321 -150Q331 -150 346 -147T375 -136T388 -115Q388 -100 372 -93T342 -85Q318 -85 294 -93T246
-110Q260 -80 273 -50T300 12Q219 35 168 86T92 208T67 358Q67 464 106 550T221 686T409 737Q442 737 466 732T514 717T567 696Q588 689 609 686T652 681Q653 659 655 636T660 591Q662 571 667 551T672 511Q672 493 659 484T628 475Q615 475 605 480T589 498Q586
506 585 515T582 532Q575 564 558 601T516 660Q498 677 468 691T411 705Q386 705 365 694T323 667Q280 631 255 581T220 474T210 363Q210 327 214 291T229 220Q243 174 269 133T335 66T427 40Q452 40 480 47T531 64Q574 83 598 110T649 174Q656 183 661 188T680
193Q693 193 699 184T706 163Z" />
<glyph unicode="&#xc8;" glyph-name="Egrave" horiz-adv-x="674" d="M648 172Q648 156 645 140T639 106Q637 87 635 67T630 27Q627 11 621 6T598 0Q496 0 394 1T190 3Q155 3 120 0T50 -4Q33 -4 33 13Q33 27 42 29T65 32T92 35T115 54T125 104V643Q125 659 120
674T94 689Q82 689 70 689T46 688Q21 688 21 712Q21 724 29 727T47 731Q76 731 104 730T160 728Q254 728 348 729T536 731Q554 731 572 732T608 736Q610 720 612 704T617 672Q620 653 625 632T631 591Q631 579 621 572T600 564Q576 564 568 585Q553 632 524 663T441
695H261V401Q299 401 335 402T409 406Q446 409 480 418Q494 421 509 426T539 431Q551 431 551 420Q551 413 548 399T542 378Q537 365 532 363T514 360Q490 360 467 363Q429 367 390 368T312 370Q290 370 276 359T261 323V77Q261 53 267 43T299 33Q326 33 359 33T426
36T491 49T541 79Q558 96 574 124T600 174Q605 186 610 190T628 195Q640 195 644 189T648 172ZM480 827L466 775L194 829L214 905L480 827Z" />
<glyph unicode="&#xc9;" glyph-name="Eacute" horiz-adv-x="674" d="M648 172Q648 156 645 140T639 106Q637 87 635 67T630 27Q627 11 621 6T598 0Q496 0 394 1T190 3Q155 3 120 0T50 -4Q33 -4 33 13Q33 27 42 29T65 32T92 35T115 54T125 104V643Q125 659 120
674T94 689Q82 689 70 689T46 688Q21 688 21 712Q21 724 29 727T47 731Q76 731 104 730T160 728Q254 728 348 729T536 731Q554 731 572 732T608 736Q610 720 612 704T617 672Q620 653 625 632T631 591Q631 579 621 572T600 564Q576 564 568 585Q553 632 524 663T441
695H261V401Q299 401 335 402T409 406Q446 409 480 418Q494 421 509 426T539 431Q551 431 551 420Q551 413 548 399T542 378Q537 365 532 363T514 360Q490 360 467 363Q429 367 390 368T312 370Q290 370 276 359T261 323V77Q261 53 267 43T299 33Q326 33 359 33T426
36T491 49T541 79Q558 96 574 124T600 174Q605 186 610 190T628 195Q640 195 644 189T648 172ZM480 828L208 774L194 826L460 904L480 828Z" />
<glyph unicode="&#xca;" glyph-name="Ecircumflex" horiz-adv-x="674" d="M648 172Q648 156 645 140T639 106Q637 87 635 67T630 27Q627 11 621 6T598 0Q496 0 394 1T190 3Q155 3 120 0T50 -4Q33 -4 33 13Q33 27 42 29T65 32T92 35T115 54T125 104V643Q125 659
120 674T94 689Q82 689 70 689T46 688Q21 688 21 712Q21 724 29 727T47 731Q76 731 104 730T160 728Q254 728 348 729T536 731Q554 731 572 732T608 736Q610 720 612 704T617 672Q620 653 625 632T631 591Q631 579 621 572T600 564Q576 564 568 585Q553 632 524
663T441 695H261V401Q299 401 335 402T409 406Q446 409 480 418Q494 421 509 426T539 431Q551 431 551 420Q551 413 548 399T542 378Q537 365 532 363T514 360Q490 360 467 363Q429 367 390 368T312 370Q290 370 276 359T261 323V77Q261 53 267 43T299 33Q326 33
359 33T426 36T491 49T541 79Q558 96 574 124T600 174Q605 186 610 190T628 195Q640 195 644 189T648 172ZM513 816L504 771L335 826L172 773L161 818L337 901L513 816Z" />
<glyph unicode="&#xcb;" glyph-name="Edieresis" horiz-adv-x="674" d="M648 172Q648 156 645 140T639 106Q637 87 635 67T630 27Q627 11 621 6T598 0Q496 0 394 1T190 3Q155 3 120 0T50 -4Q33 -4 33 13Q33 27 42 29T65 32T92 35T115 54T125 104V643Q125 659 120
674T94 689Q82 689 70 689T46 688Q21 688 21 712Q21 724 29 727T47 731Q76 731 104 730T160 728Q254 728 348 729T536 731Q554 731 572 732T608 736Q610 720 612 704T617 672Q620 653 625 632T631 591Q631 579 621 572T600 564Q576 564 568 585Q553 632 524 663T441
695H261V401Q299 401 335 402T409 406Q446 409 480 418Q494 421 509 426T539 431Q551 431 551 420Q551 413 548 399T542 378Q537 365 532 363T514 360Q490 360 467 363Q429 367 390 368T312 370Q290 370 276 359T261 323V77Q261 53 267 43T299 33Q326 33 359 33T426
36T491 49T541 79Q558 96 574 124T600 174Q605 186 610 190T628 195Q640 195 644 189T648 172ZM291 819Q291 794 271 778T227 762Q205 762 184 778T163 819Q163 843 184 859T227 876Q250 876 270 860T291 819ZM511 819Q511 794 491 778T447 762Q424 762 404 778T383
819Q383 843 403 859T447 876Q470 876 490 860T511 819Z" />
<glyph unicode="&#xcc;" glyph-name="Igrave" horiz-adv-x="413" d="M345 713Q345 696 329 696Q317 696 305 696T280 697Q270 697 266 689T262 671Q262 636 262 601T261 530Q261 420 261 310T262 89Q262 82 261 67T263 40T278 27Q291 27 304 28T330 29Q337 29
340 24T343 11Q343 4 339 -1T326 -7Q292 -7 259 -6T191 -5Q157 -5 123 -6T55 -7Q45 -7 42 -3T39 10Q39 18 42 23T54 29Q65 29 76 28T97 27Q111 27 116 36T122 57T123 79L124 653Q124 662 122 679T108 698Q105 698 103 698T97 698Q87 698 78 697T58 696Q39 696 39
715Q39 722 43 727T55 732Q98 732 140 730T226 728Q252 728 278 730T331 732Q339 732 342 726T345 713ZM344 827L331 775L69 829L87 905L344 827Z" />
<glyph unicode="&#xcd;" glyph-name="Iacute" horiz-adv-x="413" d="M345 713Q345 696 329 696Q317 696 305 696T280 697Q270 697 266 689T262 671Q262 636 262 601T261 530Q261 420 261 310T262 89Q262 82 261 67T263 40T278 27Q291 27 304 28T330 29Q337 29
340 24T343 11Q343 4 339 -1T326 -7Q292 -7 259 -6T191 -5Q157 -5 123 -6T55 -7Q45 -7 42 -3T39 10Q39 18 42 23T54 29Q65 29 76 28T97 27Q111 27 116 36T122 57T123 79L124 653Q124 662 122 679T108 698Q105 698 103 698T97 698Q87 698 78 697T58 696Q39 696 39
715Q39 722 43 727T55 732Q98 732 140 730T226 728Q252 728 278 730T331 732Q339 732 342 726T345 713ZM344 828L82 774L69 826L326 904L344 828Z" />
<glyph unicode="&#xce;" glyph-name="Icircumflex" horiz-adv-x="413" d="M345 713Q345 696 329 696Q317 696 305 696T280 697Q270 697 266 689T262 671Q262 636 262 601T261 530Q261 420 261 310T262 89Q262 82 261 67T263 40T278 27Q291 27 304 28T330 29Q337
29 340 24T343 11Q343 4 339 -1T326 -7Q292 -7 259 -6T191 -5Q157 -5 123 -6T55 -7Q45 -7 42 -3T39 10Q39 18 42 23T54 29Q65 29 76 28T97 27Q111 27 116 36T122 57T123 79L124 653Q124 662 122 679T108 698Q105 698 103 698T97 698Q87 698 78 697T58 696Q39 696
39 715Q39 722 43 727T55 732Q98 732 140 730T226 728Q252 728 278 730T331 732Q339 732 342 726T345 713ZM378 822L369 776L205 831L46 778L35 823L207 906L378 822Z" />
<glyph unicode="&#xcf;" glyph-name="Idieresis" horiz-adv-x="413" d="M345 713Q345 696 329 696Q317 696 305 696T280 697Q270 697 266 689T262 671Q262 636 262 601T261 530Q261 420 261 310T262 89Q262 82 261 67T263 40T278 27Q291 27 304 28T330 29Q337
29 340 24T343 11Q343 4 339 -1T326 -7Q292 -7 259 -6T191 -5Q157 -5 123 -6T55 -7Q45 -7 42 -3T39 10Q39 18 42 23T54 29Q65 29 76 28T97 27Q111 27 116 36T122 57T123 79L124 653Q124 662 122 679T108 698Q105 698 103 698T97 698Q87 698 78 697T58 696Q39 696
39 715Q39 722 43 727T55 732Q98 732 140 730T226 728Q252 728 278 730T331 732Q339 732 342 726T345 713ZM162 819Q162 795 142 779T99 762Q77 762 57 778T37 819Q37 843 57 859T99 876Q122 876 142 860T162 819ZM376 819Q376 795 357 779T314 762Q291 762 271
778T251 819Q251 843 271 859T314 876Q337 876 356 860T376 819Z" />
<glyph unicode="&#xd0;" glyph-name="Eth" horiz-adv-x="821" d="M615 372Q615 429 603 485T564 589T492 665T379 694Q348 694 318 693T256 691V398H368V348H256V79Q256 54 262 43T297 31Q348 31 403 39T499 79Q543 114 568 162T604 264T615 372ZM760 386Q760
323 743 261T692 146T602 57Q567 34 522 20T429 -1T339 -7Q305 -7 271 -5T203 -2Q178 -2 154 -2T105 -5Q95 -6 86 -6T68 -7Q50 -7 50 9Q50 19 59 22T80 26T98 30Q115 38 118 55T121 88Q121 153 121 218T121 348H46V398H121V449Q121 501 121 552T119 655Q119 656
119 663T118 671Q114 687 94 688T60 690Q52 690 41 692T30 707Q30 713 36 719T49 726Q72 726 96 725T143 723Q213 723 282 728T421 733Q530 733 605 691T720 572T760 386Z" />
<glyph unicode="&#xd1;" glyph-name="Ntilde" horiz-adv-x="780" d="M766 718Q766 699 747 699Q739 699 731 700T715 701Q711 701 706 701T696 700Q686 700 683 688T680 661T680 640V17Q680 10 679 5T668 -1Q654 -3 638 -3T608 -3Q600 23 586 47T555 93Q463 227
361 352T164 609Q164 474 164 340T163 70Q163 61 165 48T180 34Q194 34 208 35T236 36Q244 36 246 29T249 16Q249 9 246 3T234 -3Q217 -3 200 -1T166 1Q143 1 119 1T72 -2Q63 -3 55 -3T38 -4Q18 -4 18 17Q18 25 24 30T37 36Q47 36 56 35T75 33Q90 33 97 37T105
60Q105 198 107 336T110 612Q110 625 110 637T110 662Q110 675 106 688T85 701Q73 701 61 700T35 699Q18 699 18 718Q18 736 36 736Q62 736 88 735T139 734Q162 734 185 734T232 735Q291 655 356 581T482 427Q517 380 553 333T626 240Q626 346 626 452T627 664Q627
673 625 686T609 700H582Q576 700 570 699T558 697Q539 697 539 718Q539 730 546 732T563 735Q583 735 602 734T641 733Q667 733 693 735T746 737Q754 737 760 732T766 718ZM554 862Q531 837 510 815T450 793Q423 793 400 804T357 826T322 837Q314 837 301 827T277
806T259 787L226 807Q249 840 273 865T341 891Q366 891 387 881T427 861T465 850Q480 850 498 864T524 890L554 862Z" />
<glyph unicode="&#xd2;" glyph-name="Ograve" horiz-adv-x="820" d="M617 363Q617 401 611 447T591 540T553 624T494 686T409 710Q360 710 324 687T264 625T224 540T203 448T196 363Q196 325 203 280T225 189T264 106T325 46T409 23Q459 23 494 45T553 105T591
187T611 278T617 363ZM762 365Q762 252 722 168T604 38T409 -8Q295 -8 216 38T96 168T55 363Q55 441 79 509T150 630T262 711T409 740Q523 740 602 693T721 561T762 365ZM553 827L539 775L267 829L286 905L553 827Z" />
<glyph unicode="&#xd3;" glyph-name="Oacute" horiz-adv-x="820" d="M617 363Q617 401 611 447T591 540T553 624T494 686T409 710Q360 710 324 687T264 625T224 540T203 448T196 363Q196 325 203 280T225 189T264 106T325 46T409 23Q459 23 494 45T553 105T591
187T611 278T617 363ZM762 365Q762 252 722 168T604 38T409 -8Q295 -8 216 38T96 168T55 363Q55 441 79 509T150 630T262 711T409 740Q523 740 602 693T721 561T762 365ZM553 828L281 774L267 826L534 904L553 828Z" />
<glyph unicode="&#xd4;" glyph-name="Ocircumflex" horiz-adv-x="820" d="M617 363Q617 401 611 447T591 540T553 624T494 686T409 710Q360 710 324 687T264 625T224 540T203 448T196 363Q196 325 203 280T225 189T264 106T325 46T409 23Q459 23 494 45T553 105T591
187T611 278T617 363ZM762 365Q762 252 722 168T604 38T409 -8Q295 -8 216 38T96 168T55 363Q55 441 79 509T150 630T262 711T409 740Q523 740 602 693T721 561T762 365ZM587 816L577 771L408 826L244 773L233 818L410 901L587 816Z" />
<glyph unicode="&#xd5;" glyph-name="Otilde" horiz-adv-x="820" d="M617 363Q617 401 611 447T591 540T553 624T494 686T409 710Q360 710 324 687T264 625T224 540T203 448T196 363Q196 325 203 280T225 189T264 106T325 46T409 23Q459 23 494 45T553 105T591
187T611 278T617 363ZM762 365Q762 252 722 168T604 38T409 -8Q295 -8 216 38T96 168T55 363Q55 441 79 509T150 630T262 711T409 740Q523 740 602 693T721 561T762 365ZM574 859Q551 834 530 812T470 790Q443 790 420 801T377 823T342 834Q334 834 323 824T300
801T284 781L246 807Q269 840 293 866T361 892Q386 892 407 882T447 861T485 850Q499 850 516 867T542 895L574 859Z" />
<glyph unicode="&#xd6;" glyph-name="Odieresis" horiz-adv-x="820" d="M617 363Q617 401 611 447T591 540T553 624T494 686T409 710Q360 710 324 687T264 625T224 540T203 448T196 363Q196 325 203 280T225 189T264 106T325 46T409 23Q459 23 494 45T553 105T591
187T611 278T617 363ZM762 365Q762 252 722 168T604 38T409 -8Q295 -8 216 38T96 168T55 363Q55 441 79 509T150 630T262 711T409 740Q523 740 602 693T721 561T762 365ZM364 819Q364 794 344 778T300 762Q277 762 256 778T235 819Q235 843 256 859T300 876Q323
876 343 860T364 819ZM585 819Q585 794 564 778T520 762Q498 762 477 778T456 819Q456 843 477 859T520 876Q543 876 564 860T585 819Z" />
<glyph unicode="&#xd7;" glyph-name="multiply" horiz-adv-x="750" d="M642 140L601 99L377 320L149 94L109 137L336 363L116 580L156 622L376 402L595 619L637 577L418 361L642 140Z" />
<glyph unicode="&#xd8;" glyph-name="Oslash" horiz-adv-x="820" d="M610 369Q610 412 605 455T587 540L253 141Q277 94 315 63T409 32Q457 32 491 54T549 114T585 196T604 286T610 369ZM568 593Q546 644 507 679T409 714Q368 714 336 694T281 642T243 572T220
501Q205 435 205 369Q205 324 212 278T233 189L568 593ZM756 369Q756 257 718 175T602 47T409 1Q351 1 295 16T191 67L119 -19L82 6L157 97Q105 152 85 224T65 369Q65 446 88 514T155 633T264 714T409 744Q469 744 527 727T633 671L716 770L754 738L669 637Q717
582 736 511T756 369Z" />
<glyph unicode="&#xd9;" glyph-name="Ugrave" horiz-adv-x="756" d="M743 715Q743 708 739 702T726 695Q713 695 700 695T674 696Q661 696 658 684T655 661Q655 656 655 651T656 640Q656 549 656 459T657 279Q657 147 592 71T390 -6Q255 -6 180 59T105 264V309Q105
395 105 481T106 655Q106 664 104 679T90 696Q77 697 64 696T37 695Q30 695 24 700T18 713Q18 721 23 727T37 733Q49 733 60 732T83 730Q106 729 129 729T174 728Q197 728 218 728T262 729Q276 730 289 731T316 733Q324 733 328 727T333 713Q333 706 329 701T316
695Q303 695 291 696T265 697Q255 697 252 689T248 672Q247 656 247 640T248 608Q248 518 247 429T245 249Q245 206 248 168T266 99T310 52T395 35Q467 35 510 68T572 156T591 275Q591 374 587 473T583 671Q583 686 576 691T555 697Q545 697 536 696T515 695Q508
695 502 700T496 713Q496 721 501 727T515 733Q531 733 546 732T577 729Q587 728 597 728T617 728Q628 728 639 728T662 729Q678 729 693 731T725 733Q743 733 743 715ZM521 827L507 775L235 829L254 905L521 827Z" />
<glyph unicode="&#xda;" glyph-name="Uacute" horiz-adv-x="756" d="M743 715Q743 708 739 702T726 695Q713 695 700 695T674 696Q661 696 658 684T655 661Q655 656 655 651T656 640Q656 549 656 459T657 279Q657 147 592 71T390 -6Q255 -6 180 59T105 264V309Q105
395 105 481T106 655Q106 664 104 679T90 696Q77 697 64 696T37 695Q30 695 24 700T18 713Q18 721 23 727T37 733Q49 733 60 732T83 730Q106 729 129 729T174 728Q197 728 218 728T262 729Q276 730 289 731T316 733Q324 733 328 727T333 713Q333 706 329 701T316
695Q303 695 291 696T265 697Q255 697 252 689T248 672Q247 656 247 640T248 608Q248 518 247 429T245 249Q245 206 248 168T266 99T310 52T395 35Q467 35 510 68T572 156T591 275Q591 374 587 473T583 671Q583 686 576 691T555 697Q545 697 536 696T515 695Q508
695 502 700T496 713Q496 721 501 727T515 733Q531 733 546 732T577 729Q587 728 597 728T617 728Q628 728 639 728T662 729Q678 729 693 731T725 733Q743 733 743 715ZM521 828L249 774L235 826L502 904L521 828Z" />
<glyph unicode="&#xdb;" glyph-name="Ucircumflex" horiz-adv-x="756" d="M743 715Q743 708 739 702T726 695Q713 695 700 695T674 696Q661 696 658 684T655 661Q655 656 655 651T656 640Q656 549 656 459T657 279Q657 147 592 71T390 -6Q255 -6 180 59T105 264V309Q105
395 105 481T106 655Q106 664 104 679T90 696Q77 697 64 696T37 695Q30 695 24 700T18 713Q18 721 23 727T37 733Q49 733 60 732T83 730Q106 729 129 729T174 728Q197 728 218 728T262 729Q276 730 289 731T316 733Q324 733 328 727T333 713Q333 706 329 701T316
695Q303 695 291 696T265 697Q255 697 252 689T248 672Q247 656 247 640T248 608Q248 518 247 429T245 249Q245 206 248 168T266 99T310 52T395 35Q467 35 510 68T572 156T591 275Q591 374 587 473T583 671Q583 686 576 691T555 697Q545 697 536 696T515 695Q508
695 502 700T496 713Q496 721 501 727T515 733Q531 733 546 732T577 729Q587 728 597 728T617 728Q628 728 639 728T662 729Q678 729 693 731T725 733Q743 733 743 715ZM555 816L545 771L376 826L212 773L201 818L378 901L555 816Z" />
<glyph unicode="&#xdc;" glyph-name="Udieresis" horiz-adv-x="756" d="M743 715Q743 708 739 702T726 695Q713 695 700 695T674 696Q661 696 658 684T655 661Q655 656 655 651T656 640Q656 549 656 459T657 279Q657 147 592 71T390 -6Q255 -6 180 59T105 264V309Q105
395 105 481T106 655Q106 664 104 679T90 696Q77 697 64 696T37 695Q30 695 24 700T18 713Q18 721 23 727T37 733Q49 733 60 732T83 730Q106 729 129 729T174 728Q197 728 218 728T262 729Q276 730 289 731T316 733Q324 733 328 727T333 713Q333 706 329 701T316
695Q303 695 291 696T265 697Q255 697 252 689T248 672Q247 656 247 640T248 608Q248 518 247 429T245 249Q245 206 248 168T266 99T310 52T395 35Q467 35 510 68T572 156T591 275Q591 374 587 473T583 671Q583 686 576 691T555 697Q545 697 536 696T515 695Q508
695 502 700T496 713Q496 721 501 727T515 733Q531 733 546 732T577 729Q587 728 597 728T617 728Q628 728 639 728T662 729Q678 729 693 731T725 733Q743 733 743 715ZM332 819Q332 794 312 778T268 762Q245 762 224 778T203 819Q203 843 224 859T268 876Q291
876 311 860T332 819ZM553 819Q553 794 532 778T488 762Q466 762 445 778T424 819Q424 843 445 859T488 876Q511 876 532 860T553 819Z" />
<glyph unicode="&#xdd;" glyph-name="Yacute" horiz-adv-x="693" d="M704 718Q704 702 693 702T670 701Q663 701 654 701T639 697Q633 695 626 686T615 671Q563 585 512 499T410 326Q411 262 411 198T410 69Q410 56 414 42T434 27Q448 27 461 28T488 29Q496 29
500 24T505 11Q505 4 500 0T488 -5Q457 -5 426 -3T364 -1Q334 -1 305 -1T246 -3Q234 -4 222 -4T198 -5Q179 -5 179 12Q179 30 197 30Q208 30 218 29T238 28Q259 28 265 35T272 56T271 84L272 267Q272 298 264 322T243 374Q225 416 205 457T163 539Q146 573 128
608T88 674Q83 682 73 688T52 695Q45 695 37 694T21 692Q13 692 7 697T0 710Q0 726 17 728Q35 730 53 731T89 733Q115 736 141 739T194 742Q206 742 211 738T222 722Q260 632 299 543T379 365Q388 379 407 412T448 486T491 569T525 643T538 690Q538 699 533 701T519
704Q509 704 500 703T480 701Q458 701 458 720Q458 736 476 736Q505 736 534 735T592 733Q616 733 640 734T688 736Q704 736 704 718ZM490 828L217 774L203 826L470 904L490 828Z" />
<glyph unicode="&#xde;" glyph-name="Thorn" horiz-adv-x="742" d="M530 417Q530 494 481 532T360 570H324Q305 570 286 567T248 560V271Q271 256 300 251T356 246Q439 246 484 290T530 417ZM659 418Q659 348 633 306T563 243T465 214T354 207Q328 207 302 210T249
217V98Q249 85 250 71T260 46T285 35Q293 35 301 35T318 36Q327 36 336 32T346 17Q346 1 333 -3T308 -7Q281 -7 254 -5T199 -3Q165 -3 130 -5T60 -8Q50 -8 42 -3T34 14Q34 26 42 29T62 33T81 34Q113 39 121 60T129 109Q129 192 129 276T130 443Q130 499 130 555T129
666Q129 696 102 696Q89 696 77 696T51 697Q41 697 34 703T26 719Q26 728 34 733T50 739H182Q217 739 251 740T320 742Q331 742 337 739T343 723Q343 713 335 709T318 704Q307 704 296 704T273 703Q263 703 256 697T248 680Q248 661 248 642T247 604Q288 605 329
607T410 610Q456 610 500 600T580 568T637 509T659 418Z" />
<glyph unicode="&#xdf;" glyph-name="germandbls" horiz-adv-x="615" d="M579 200Q579 143 562 96T506 22T404 -6Q360 -6 327 16T280 81Q283 102 283 123T287 165Q288 172 290 178T302 184Q310 184 311 176T314 162Q316 142 324 115T349 68T391 47Q416 47 430
70T450 127T458 193T460 242Q460 298 439 343T361 409Q348 414 336 420T324 444Q324 455 330 463T343 479Q367 506 376 540T385 610Q385 637 380 665T358 713T307 733Q272 733 252 708T223 647T212 573T210 511V69Q210 57 213 44T232 31Q242 31 251 31T271 32Q277
32 280 26T283 15Q283 8 280 3T269 -3Q259 -3 249 -2T227 0Q206 2 185 2T142 2Q117 2 92 0T42 -2Q35 -2 29 1T23 14Q23 26 29 29T45 32Q53 32 61 32T76 31Q93 31 98 40T103 64V411Q88 411 73 410T43 409Q35 409 29 412T22 425Q22 436 29 439T45 443Q59 443 74 443T103
442Q100 475 100 508Q100 555 110 600T144 682T205 741T297 763Q341 763 383 745T453 692T481 610Q481 570 467 542T433 496T398 465T381 445Q385 439 406 432T456 411T513 372T560 306T579 200Z" />
<glyph unicode="&#xe0;" glyph-name="agrave" horiz-adv-x="544" d="M334 106Q331 153 330 200T330 296Q289 289 251 271T187 221T162 142Q162 122 167 99T187 61T227 45Q245 45 265 55T303 80T334 106ZM540 47Q540 43 537 38T530 30Q499 -6 450 -6Q407 -6 381
13T341 72Q309 38 273 18T187 -2Q152 -2 117 13T58 58T34 125Q34 163 53 192T103 243T164 279Q204 296 246 305T330 325V329Q330 347 330 377T323 438T303 490T262 512Q231 512 207 494T172 446Q170 437 169 429T166 411Q164 395 148 390T117 384Q100 384 84 391T68
420Q68 428 70 434T76 448Q92 486 124 504T194 528T268 534Q350 534 403 490T456 360V209Q455 181 455 152T458 93Q460 76 466 61T493 45Q507 45 516 51T534 57Q538 57 539 53T540 47ZM413 697L400 644L131 699L150 775L413 697Z" />
<glyph unicode="&#xe1;" glyph-name="aacute" horiz-adv-x="544" d="M334 106Q331 153 330 200T330 296Q289 289 251 271T187 221T162 142Q162 122 167 99T187 61T227 45Q245 45 265 55T303 80T334 106ZM540 47Q540 43 537 38T530 30Q499 -6 450 -6Q407 -6 381
13T341 72Q309 38 273 18T187 -2Q152 -2 117 13T58 58T34 125Q34 163 53 192T103 243T164 279Q204 296 246 305T330 325V329Q330 347 330 377T323 438T303 490T262 512Q231 512 207 494T172 446Q170 437 169 429T166 411Q164 395 148 390T117 384Q100 384 84 391T68
420Q68 428 70 434T76 448Q92 486 124 504T194 528T268 534Q350 534 403 490T456 360V209Q455 181 455 152T458 93Q460 76 466 61T493 45Q507 45 516 51T534 57Q538 57 539 53T540 47ZM413 699L144 644L131 697L394 775L413 699Z" />
<glyph unicode="&#xe2;" glyph-name="acircumflex" horiz-adv-x="544" d="M334 106Q331 153 330 200T330 296Q289 289 251 271T187 221T162 142Q162 122 167 99T187 61T227 45Q245 45 265 55T303 80T334 106ZM540 47Q540 43 537 38T530 30Q499 -6 450 -6Q407 -6
381 13T341 72Q309 38 273 18T187 -2Q152 -2 117 13T58 58T34 125Q34 163 53 192T103 243T164 279Q204 296 246 305T330 325V329Q330 347 330 377T323 438T303 490T262 512Q231 512 207 494T172 446Q170 437 169 429T166 411Q164 395 148 390T117 384Q100 384 84
391T68 420Q68 428 70 434T76 448Q92 486 124 504T194 528T268 534Q350 534 403 490T456 360V209Q455 181 455 152T458 93Q460 76 466 61T493 45Q507 45 516 51T534 57Q538 57 539 53T540 47ZM446 688L437 642L270 697L108 644L98 690L272 772L446 688Z" />
<glyph unicode="&#xe3;" glyph-name="atilde" horiz-adv-x="544" d="M334 106Q331 153 330 200T330 296Q289 289 251 271T187 221T162 142Q162 122 167 99T187 61T227 45Q245 45 265 55T303 80T334 106ZM540 47Q540 43 537 38T530 30Q499 -6 450 -6Q407 -6 381
13T341 72Q309 38 273 18T187 -2Q152 -2 117 13T58 58T34 125Q34 163 53 192T103 243T164 279Q204 296 246 305T330 325V329Q330 347 330 377T323 438T303 490T262 512Q231 512 207 494T172 446Q170 437 169 429T166 411Q164 395 148 390T117 384Q100 384 84 391T68
420Q68 428 70 434T76 448Q92 486 124 504T194 528T268 534Q350 534 403 490T456 360V209Q455 181 455 152T458 93Q460 76 466 61T493 45Q507 45 516 51T534 57Q538 57 539 53T540 47ZM432 733Q410 708 389 686T329 664Q303 664 280 675T237 696T203 707Q195 707
184 697T161 674T145 655L108 681Q130 713 154 739T222 765Q247 765 267 755T307 734T344 723Q358 723 374 740T400 768L432 733Z" />
<glyph unicode="&#xe4;" glyph-name="adieresis" horiz-adv-x="544" d="M334 106Q331 153 330 200T330 296Q289 289 251 271T187 221T162 142Q162 122 167 99T187 61T227 45Q245 45 265 55T303 80T334 106ZM540 47Q540 43 537 38T530 30Q499 -6 450 -6Q407 -6
381 13T341 72Q309 38 273 18T187 -2Q152 -2 117 13T58 58T34 125Q34 163 53 192T103 243T164 279Q204 296 246 305T330 325V329Q330 347 330 377T323 438T303 490T262 512Q231 512 207 494T172 446Q170 437 169 429T166 411Q164 395 148 390T117 384Q100 384 84
391T68 420Q68 428 70 434T76 448Q92 486 124 504T194 528T268 534Q350 534 403 490T456 360V209Q455 181 455 152T458 93Q460 76 466 61T493 45Q507 45 516 51T534 57Q538 57 539 53T540 47ZM227 696Q227 672 207 656T163 639Q141 639 120 655T99 696Q99 720 120
736T163 753Q186 753 206 737T227 696ZM445 696Q445 672 425 656T381 639Q358 639 338 655T317 696Q317 720 337 736T381 753Q404 753 424 737T445 696Z" />
<glyph unicode="&#xe5;" glyph-name="aring" horiz-adv-x="544" d="M334 106Q331 153 330 200T330 296Q289 289 251 271T187 221T162 142Q162 122 167 99T187 61T227 45Q245 45 265 55T303 80T334 106ZM332 673Q332 699 315 716T272 733Q247 733 229 716T211 673Q211
648 229 631T272 613Q297 613 314 630T332 673ZM540 47Q540 43 537 38T530 30Q499 -6 450 -6Q407 -6 381 13T341 72Q309 38 273 18T187 -2Q152 -2 117 13T58 58T34 125Q34 163 53 192T103 243T164 279Q204 296 246 305T330 325V329Q330 347 330 377T323 438T303
490T262 512Q231 512 207 494T172 446Q170 437 169 429T166 411Q164 395 148 390T117 384Q100 384 84 391T68 420Q68 428 70 434T76 448Q92 486 124 504T194 528T268 534Q350 534 403 490T456 360V209Q455 181 455 152T458 93Q460 76 466 61T493 45Q507 45 516
51T534 57Q538 57 539 53T540 47ZM361 673Q361 636 335 611T272 585Q235 585 209 610T183 673Q183 710 209 735T272 761Q309 761 335 736T361 673Z" />
<glyph unicode="&#xe6;" glyph-name="ae" horiz-adv-x="869" d="M360 127Q352 171 352 215T350 304H348Q317 304 284 294T221 263T173 215T154 152Q154 113 174 85T238 57Q258 57 281 68T325 96T360 127ZM685 364Q685 388 683 415T673 467T647 508T596 524Q566
524 544 508T508 467T484 414T470 362Q490 360 510 360T550 359Q584 359 617 360T685 364ZM824 128Q824 127 823 123T820 117Q810 99 789 79T750 45Q716 20 677 8T595 -4Q561 -4 519 4T440 30T385 82Q342 48 298 26T197 3Q157 3 123 17T67 61T46 135Q46 175 65
205T114 258T178 295Q219 312 263 320T350 338V347Q350 377 348 406T332 463Q322 483 306 501T265 520Q225 520 201 493T167 429Q166 425 165 420T162 410Q158 403 150 397T132 391Q112 391 93 399T73 433Q73 446 77 455Q86 481 116 503T171 534Q194 542 222 546T276
551Q319 551 359 536T426 484Q461 517 507 535T601 553Q694 553 749 499T804 351Q804 332 796 326T771 320Q749 320 727 321T683 324Q658 326 633 326T583 326Q553 326 524 326T464 324Q463 309 462 294T461 264Q461 232 468 194T491 120T535 62T602 39Q650 39
683 56T739 95T776 135T801 152Q824 152 824 128Z" />
<glyph unicode="&#xe7;" glyph-name="ccedilla" horiz-adv-x="540" d="M507 135Q507 131 505 127T501 118Q480 79 443 51T361 9T272 -2Q264 -16 255 -30T237 -58Q258 -55 281 -55Q301 -55 326 -59T369 -75T387 -115Q387 -142 372 -158T334 -182T286 -192T240 -195Q218
-195 194 -188T150 -171Q143 -168 129 -159T114 -141Q114 -134 121 -132T133 -129Q144 -129 153 -133T171 -140Q204 -151 238 -151Q248 -151 263 -148T291 -137T304 -116Q304 -100 288 -93T259 -85Q235 -85 211 -93T165 -110Q176 -80 191 -52T219 7Q129 31 81 98T33
258Q33 336 63 400T150 504T290 543Q320 543 347 534Q367 527 383 518T418 500Q420 500 421 500T423 499Q435 499 444 508T462 518Q468 518 470 514T473 505Q475 495 475 486T475 466Q476 441 477 417T479 367Q479 355 475 345T456 335Q446 335 441 339T434 353Q422
389 409 424T366 486Q355 497 336 507T300 518Q284 518 269 512T240 495Q210 468 193 429T168 346T161 264Q161 234 167 195T189 119T230 58T294 33Q347 33 387 60T458 127Q461 132 464 136T471 145Q479 153 487 153Q495 153 501 148T507 135Z" />
<glyph unicode="&#xe8;" glyph-name="egrave" horiz-adv-x="545" d="M378 351Q378 371 376 399T367 453T343 498T299 516Q272 516 252 499T217 455T195 400T183 349Q200 349 216 349T249 348Q314 348 378 351ZM522 130Q522 127 521 122T517 113Q510 97 491 77T457
45Q390 -6 302 -6Q223 -6 165 27T76 121T45 259Q45 337 75 400T163 501T302 539Q395 539 451 488T507 342Q507 316 483 316Q439 316 395 317T307 318Q275 318 243 318T179 317Q176 287 176 256Q176 228 183 190T206 116T247 57T308 33Q353 33 383 46T438 83T487
140Q490 144 493 146T502 149Q509 149 515 144T522 130ZM414 700L400 648L131 702L150 778L414 700Z" />
<glyph unicode="&#xe9;" glyph-name="eacute" horiz-adv-x="545" d="M378 351Q378 371 376 399T367 453T343 498T299 516Q272 516 252 499T217 455T195 400T183 349Q200 349 216 349T249 348Q314 348 378 351ZM522 130Q522 127 521 122T517 113Q510 97 491 77T457
45Q390 -6 302 -6Q223 -6 165 27T76 121T45 259Q45 337 75 400T163 501T302 539Q395 539 451 488T507 342Q507 316 483 316Q439 316 395 317T307 318Q275 318 243 318T179 317Q176 287 176 256Q176 228 183 190T206 116T247 57T308 33Q353 33 383 46T438 83T487
140Q490 144 493 146T502 149Q509 149 515 144T522 130ZM414 706L145 651L131 704L395 782L414 706Z" />
<glyph unicode="&#xea;" glyph-name="ecircumflex" horiz-adv-x="545" d="M378 351Q378 371 376 399T367 453T343 498T299 516Q272 516 252 499T217 455T195 400T183 349Q200 349 216 349T249 348Q314 348 378 351ZM522 130Q522 127 521 122T517 113Q510 97 491
77T457 45Q390 -6 302 -6Q223 -6 165 27T76 121T45 259Q45 337 75 400T163 501T302 539Q395 539 451 488T507 342Q507 316 483 316Q439 316 395 317T307 318Q275 318 243 318T179 317Q176 287 176 256Q176 228 183 190T206 116T247 57T308 33Q353 33 383 46T438
83T487 140Q490 144 493 146T502 149Q509 149 515 144T522 130ZM447 675L437 630L271 685L109 632L98 677L273 760L447 675Z" />
<glyph unicode="&#xeb;" glyph-name="edieresis" horiz-adv-x="545" d="M378 351Q378 371 376 399T367 453T343 498T299 516Q272 516 252 499T217 455T195 400T183 349Q200 349 216 349T249 348Q314 348 378 351ZM522 130Q522 127 521 122T517 113Q510 97 491
77T457 45Q390 -6 302 -6Q223 -6 165 27T76 121T45 259Q45 337 75 400T163 501T302 539Q395 539 451 488T507 342Q507 316 483 316Q439 316 395 317T307 318Q275 318 243 318T179 317Q176 287 176 256Q176 228 183 190T206 116T247 57T308 33Q353 33 383 46T438
83T487 140Q490 144 493 146T502 149Q509 149 515 144T522 130ZM227 696Q227 672 207 656T164 639Q141 639 121 655T100 696Q100 720 120 736T164 753Q187 753 207 737T227 696ZM445 696Q445 672 425 656T381 639Q359 639 339 655T318 696Q318 720 338 736T381
753Q404 753 424 737T445 696Z" />
<glyph unicode="&#xec;" glyph-name="igrave" horiz-adv-x="344" d="M314 12Q314 -4 298 -4Q269 -4 239 -2T179 1Q149 1 119 -1T58 -4Q51 -4 48 1T45 12Q45 28 60 28Q70 28 79 27T97 26Q109 26 112 34T116 52V449Q116 459 114 471T98 484Q85 484 71 482T43 480Q37
480 32 483T26 493Q26 506 39 510Q50 512 62 513T86 516Q121 521 154 528T222 544Q225 544 228 544T233 545Q248 545 248 533Q248 413 247 293T246 52Q246 34 254 30T274 26T300 27Q314 27 314 12ZM309 700L296 648L35 702L53 778L309 700Z" />
<glyph unicode="&#xed;" glyph-name="iacute" horiz-adv-x="344" d="M314 12Q314 -4 298 -4Q269 -4 239 -2T179 1Q149 1 119 -1T58 -4Q51 -4 48 1T45 12Q45 28 60 28Q70 28 79 27T97 26Q109 26 112 34T116 52V449Q116 459 114 471T98 484Q85 484 71 482T43 480Q37
480 32 483T26 493Q26 506 39 510Q50 512 62 513T86 516Q121 521 154 528T222 544Q225 544 228 544T233 545Q248 545 248 533Q248 413 247 293T246 52Q246 34 254 30T274 26T300 27Q314 27 314 12ZM309 706L48 651L35 704L291 782L309 706Z" />
<glyph unicode="&#xee;" glyph-name="icircumflex" horiz-adv-x="344" d="M314 12Q314 -4 298 -4Q269 -4 239 -2T179 1Q149 1 119 -1T58 -4Q51 -4 48 1T45 12Q45 28 60 28Q70 28 79 27T97 26Q109 26 112 34T116 52V449Q116 459 114 471T98 484Q85 484 71 482T43
480Q37 480 32 483T26 493Q26 506 39 510Q50 512 62 513T86 516Q121 521 154 528T222 544Q225 544 228 544T233 545Q248 545 248 533Q248 413 247 293T246 52Q246 34 254 30T274 26T300 27Q314 27 314 12ZM343 675L334 630L170 685L11 632L1 677L172 760L343 675Z"
/>
<glyph unicode="&#xef;" glyph-name="idieresis" horiz-adv-x="344" d="M314 12Q314 -4 298 -4Q269 -4 239 -2T179 1Q149 1 119 -1T58 -4Q51 -4 48 1T45 12Q45 28 60 28Q70 28 79 27T97 26Q109 26 112 34T116 52V449Q116 459 114 471T98 484Q85 484 71 482T43
480Q37 480 32 483T26 493Q26 506 39 510Q50 512 62 513T86 516Q121 521 154 528T222 544Q225 544 228 544T233 545Q248 545 248 533Q248 413 247 293T246 52Q246 34 254 30T274 26T300 27Q314 27 314 12ZM137 696Q137 672 118 656T75 639Q52 639 33 655T13 696Q13
720 32 736T75 753Q98 753 117 737T137 696ZM331 696Q331 672 312 656T269 639Q247 639 227 655T207 696Q207 720 227 736T269 753Q292 753 311 737T331 696Z" />
<glyph unicode="&#xf0;" glyph-name="eth" horiz-adv-x="620" d="M436 266Q436 302 432 345T413 427T369 491T292 516Q248 516 221 490T180 423T162 340T157 264Q157 228 161 187T180 108T223 48T300 24Q346 24 373 48T414 110T432 190T436 266ZM558 284Q558 205
528 138T438 31T295 -10Q219 -10 162 27T73 125T41 261Q41 318 58 369T109 462T191 526T299 550Q369 550 427 509Q414 559 385 611T325 705L225 637L188 681L287 752Q265 775 240 792T188 826Q182 829 172 835T162 849Q162 873 185 873Q210 873 238 859T292 824T335
786L429 853L466 803L377 741Q459 645 508 529T558 284Z" />
<glyph unicode="&#xf1;" glyph-name="ntilde" horiz-adv-x="632" d="M609 14Q609 -2 593 -2Q564 -2 535 -1T476 1Q448 1 419 0T361 -2Q354 -2 351 3T348 15Q348 30 364 30Q373 30 382 30T400 29Q415 29 415 42Q415 126 415 210T416 378Q416 405 412 434T392 483T341
503Q319 503 296 487T254 449T227 408V54Q227 45 229 37T243 29Q251 29 259 29T276 30Q281 30 286 26T291 17Q291 -2 275 -2Q247 -2 220 0T163 3Q133 3 103 1T41 -2Q34 -2 31 3T28 15Q28 30 44 30Q53 30 62 30T81 29Q95 29 97 35T99 54V199Q99 260 99 321T99 443Q99
454 96 467T78 481Q68 481 59 480T39 479Q33 479 26 481T18 492Q18 498 22 501T31 505Q41 508 52 509T73 512Q99 517 124 523T175 537Q179 539 183 540T191 542Q199 542 205 527T216 495T222 471Q251 497 292 517T373 538Q440 538 477 521T531 465T547 359Q547
281 546 203T545 47Q545 37 551 33T568 28Q575 28 581 29T595 30Q609 30 609 14ZM479 705Q457 680 436 658T375 636Q349 636 326 647T283 669T248 680Q240 680 228 670T206 647T190 627L153 653Q176 685 200 711T267 737Q292 737 313 727T353 707T390 696Q405 696
421 713T447 741L479 705Z" />
<glyph unicode="&#xf2;" glyph-name="ograve" horiz-adv-x="620" d="M439 263Q439 296 435 338T416 421T376 487T304 514Q263 514 238 488T200 423T181 343T176 271Q176 238 180 196T199 113T240 47T312 21Q354 21 379 46T418 110T435 190T439 263ZM575 258Q575
181 540 122T445 28T307 -6Q230 -6 171 30T79 127T45 264Q45 343 78 405T171 504T311 541Q399 541 457 506T545 407T575 258ZM452 694L438 642L168 696L187 772L452 694Z" />
<glyph unicode="&#xf3;" glyph-name="oacute" horiz-adv-x="620" d="M439 263Q439 296 435 338T416 421T376 487T304 514Q263 514 238 488T200 423T181 343T176 271Q176 238 180 196T199 113T240 47T312 21Q354 21 379 46T418 110T435 190T439 263ZM575 258Q575
181 540 122T445 28T307 -6Q230 -6 171 30T79 127T45 264Q45 343 78 405T171 504T311 541Q399 541 457 506T545 407T575 258ZM452 700L182 646L168 698L433 777L452 700Z" />
<glyph unicode="&#xf4;" glyph-name="ocircumflex" horiz-adv-x="620" d="M439 263Q439 296 435 338T416 421T376 487T304 514Q263 514 238 488T200 423T181 343T176 271Q176 238 180 196T199 113T240 47T312 21Q354 21 379 46T418 110T435 190T439 263ZM575 258Q575
181 540 122T445 28T307 -6Q230 -6 171 30T79 127T45 264Q45 343 78 405T171 504T311 541Q399 541 457 506T545 407T575 258ZM485 686L476 640L308 695L146 642L135 688L310 770L485 686Z" />
<glyph unicode="&#xf5;" glyph-name="otilde" horiz-adv-x="620" d="M439 263Q439 296 435 338T416 421T376 487T304 514Q263 514 238 488T200 423T181 343T176 271Q176 238 180 196T199 113T240 47T312 21Q354 21 379 46T418 110T435 190T439 263ZM575 258Q575
181 540 122T445 28T307 -6Q230 -6 171 30T79 127T45 264Q45 343 78 405T171 504T311 541Q399 541 457 506T545 407T575 258ZM473 714Q450 689 429 667T369 645Q343 645 320 656T277 677T243 688Q235 688 223 678T201 655T185 636L147 661Q170 694 194 720T262
746Q287 746 307 736T347 715T384 704Q399 704 415 721T440 749L473 714Z" />
<glyph unicode="&#xf6;" glyph-name="odieresis" horiz-adv-x="620" d="M439 263Q439 296 435 338T416 421T376 487T304 514Q263 514 238 488T200 423T181 343T176 271Q176 238 180 196T199 113T240 47T312 21Q354 21 379 46T418 110T435 190T439 263ZM575 258Q575
181 540 122T445 28T307 -6Q230 -6 171 30T79 127T45 264Q45 343 78 405T171 504T311 541Q399 541 457 506T545 407T575 258ZM264 693Q264 669 244 653T201 636Q178 636 158 652T137 693Q137 718 157 734T201 751Q224 751 244 735T264 693ZM483 693Q483 669 463
653T419 636Q397 636 377 652T356 693Q356 718 376 734T419 751Q442 751 462 735T483 693Z" />
<glyph unicode="&#xf7;" glyph-name="divide" horiz-adv-x="750" d="M435 151Q435 126 418 109T375 91Q350 91 333 108T315 151Q315 176 332 193T375 211Q400 211 417 194T435 151ZM678 334H73V391H678V334ZM435 573Q435 548 418 531T375 513Q350 513 333 530T315
573Q315 598 332 615T375 633Q400 633 417 616T435 573Z" />
<glyph unicode="&#xf8;" glyph-name="oslash" horiz-adv-x="620" d="M450 257Q450 289 448 320T437 383L192 94Q209 57 240 36T313 14Q360 14 387 38T428 101T446 180T450 257ZM416 437Q399 469 371 488T305 507Q260 507 233 481T190 415T170 332T165 255Q165
230 167 204T174 153L416 437ZM574 253Q574 176 540 115T446 18T308 -18Q263 -18 221 -5T143 37L87 -26L50 8L106 75Q76 112 62 158T47 251Q47 328 79 394T171 500T312 540Q352 540 392 530T466 497L517 556L555 519L506 462Q544 419 559 364T574 253Z" />
<glyph unicode="&#xf9;" glyph-name="ugrave" horiz-adv-x="628" d="M617 37Q617 29 607 23Q580 4 557 0T502 -4Q471 -4 450 22T423 76Q394 36 355 15T265 -7Q169 -7 129 37T89 176V243Q89 295 89 346T90 450Q90 461 87 474T69 487Q63 487 58 486T46 485Q39 485
30 487T21 498Q21 506 24 509T34 513Q45 516 58 517T82 519Q137 526 195 540Q201 542 206 542Q220 542 220 529Q220 443 218 357T216 184Q216 160 217 134T226 84T252 47T302 33Q336 33 364 59T405 114Q406 116 409 123T412 132Q412 212 412 291T411 450Q411 461
408 474T390 487Q384 487 378 486T365 485Q358 485 350 487T341 498Q341 506 344 509T354 513Q365 516 378 517T403 519Q459 527 514 540Q517 541 519 541T525 542Q540 542 540 529Q540 420 539 311T538 91Q538 81 539 69T546 47T566 37Q577 37 588 42T607 48Q612
48 614 45T617 37ZM456 697L442 644L172 699L191 775L456 697Z" />
<glyph unicode="&#xfa;" glyph-name="uacute" horiz-adv-x="628" d="M617 37Q617 29 607 23Q580 4 557 0T502 -4Q471 -4 450 22T423 76Q394 36 355 15T265 -7Q169 -7 129 37T89 176V243Q89 295 89 346T90 450Q90 461 87 474T69 487Q63 487 58 486T46 485Q39 485
30 487T21 498Q21 506 24 509T34 513Q45 516 58 517T82 519Q137 526 195 540Q201 542 206 542Q220 542 220 529Q220 443 218 357T216 184Q216 160 217 134T226 84T252 47T302 33Q336 33 364 59T405 114Q406 116 409 123T412 132Q412 212 412 291T411 450Q411 461
408 474T390 487Q384 487 378 486T365 485Q358 485 350 487T341 498Q341 506 344 509T354 513Q365 516 378 517T403 519Q459 527 514 540Q517 541 519 541T525 542Q540 542 540 529Q540 420 539 311T538 91Q538 81 539 69T546 47T566 37Q577 37 588 42T607 48Q612
48 614 45T617 37ZM456 699L186 644L172 697L437 775L456 699Z" />
<glyph unicode="&#xfb;" glyph-name="ucircumflex" horiz-adv-x="628" d="M617 37Q617 29 607 23Q580 4 557 0T502 -4Q471 -4 450 22T423 76Q394 36 355 15T265 -7Q169 -7 129 37T89 176V243Q89 295 89 346T90 450Q90 461 87 474T69 487Q63 487 58 486T46 485Q39
485 30 487T21 498Q21 506 24 509T34 513Q45 516 58 517T82 519Q137 526 195 540Q201 542 206 542Q220 542 220 529Q220 443 218 357T216 184Q216 160 217 134T226 84T252 47T302 33Q336 33 364 59T405 114Q406 116 409 123T412 132Q412 212 412 291T411 450Q411
461 408 474T390 487Q384 487 378 486T365 485Q358 485 350 487T341 498Q341 506 344 509T354 513Q365 516 378 517T403 519Q459 527 514 540Q517 541 519 541T525 542Q540 542 540 529Q540 420 539 311T538 91Q538 81 539 69T546 47T566 37Q577 37 588 42T607
48Q612 48 614 45T617 37ZM490 688L480 642L312 697L149 644L138 689L314 772L490 688Z" />
<glyph unicode="&#xfc;" glyph-name="udieresis" horiz-adv-x="628" d="M617 37Q617 29 607 23Q580 4 557 0T502 -4Q471 -4 450 22T423 76Q394 36 355 15T265 -7Q169 -7 129 37T89 176V243Q89 295 89 346T90 450Q90 461 87 474T69 487Q63 487 58 486T46 485Q39
485 30 487T21 498Q21 506 24 509T34 513Q45 516 58 517T82 519Q137 526 195 540Q201 542 206 542Q220 542 220 529Q220 443 218 357T216 184Q216 160 217 134T226 84T252 47T302 33Q336 33 364 59T405 114Q406 116 409 123T412 132Q412 212 412 291T411 450Q411
461 408 474T390 487Q384 487 378 486T365 485Q358 485 350 487T341 498Q341 506 344 509T354 513Q365 516 378 517T403 519Q459 527 514 540Q517 541 519 541T525 542Q540 542 540 529Q540 420 539 311T538 91Q538 81 539 69T546 47T566 37Q577 37 588 42T607
48Q612 48 614 45T617 37ZM268 696Q268 672 248 656T204 639Q182 639 161 655T140 696Q140 720 161 736T204 753Q227 753 247 737T268 696ZM488 696Q488 672 468 656T424 639Q401 639 381 655T360 696Q360 720 380 736T424 753Q447 753 467 737T488 696Z" />
<glyph unicode="&#xfd;" glyph-name="yacute" horiz-adv-x="594" d="M601 521Q601 507 587 507T563 506Q550 506 542 498T529 478Q490 394 450 311T372 144Q347 86 320 28T263 -88Q255 -104 247 -120T228 -154Q210 -182 184 -194T125 -207Q91 -207 64 -187T37
-129Q37 -106 54 -92T94 -77Q105 -77 113 -81Q112 -109 122 -120T160 -132Q169 -132 178 -128T194 -118Q203 -111 215 -94T238 -57T251 -26Q252 -21 253 -15T254 -4Q254 25 240 70T206 167T165 263T133 339Q120 373 106 407T71 472Q60 489 46 491T13 493Q9 493
5 496T0 504Q0 518 13 521Q41 526 71 528T130 535Q141 537 151 538T172 539Q186 539 191 534T200 517Q214 487 225 456T248 393Q269 334 292 274T334 153Q342 171 357 207T391 288T427 377T455 455T466 504Q466 509 460 509T451 510Q441 510 431 510T409 509Q401
509 395 511T389 523Q389 535 395 536T410 537Q454 537 498 537T586 538Q601 538 601 521ZM439 698L169 643L155 696L420 774L439 698Z" />
<glyph unicode="&#xfe;" glyph-name="thorn" horiz-adv-x="608" d="M471 295Q471 327 466 364T446 433T406 487T339 508Q310 508 283 492T236 449T208 396Q207 393 207 386Q207 382 207 377T208 367Q208 345 208 324T207 280V175Q207 146 222 118T263 72T319 53Q366
53 396 76T442 137T465 216T471 295ZM594 293Q594 208 562 145T469 48T321 13Q257 13 207 52V-66Q207 -88 217 -95T243 -102T273 -101Q280 -101 289 -106T299 -120Q299 -129 290 -134T273 -139Q243 -139 213 -138T153 -136Q125 -136 98 -138T42 -140Q34 -140 27
-135T19 -121Q19 -104 35 -103T63 -101Q85 -101 89 -81T94 -45L93 453Q93 500 93 546T91 639Q90 654 88 662T67 671Q58 671 49 670T30 669Q23 669 13 672T3 685Q3 693 5 696T15 704Q22 707 30 708T45 710Q78 713 111 719Q128 723 145 726T179 730Q187 730 194 729T206
719Q206 718 206 698T206 649T206 588T206 533T206 502V490Q238 519 275 534T356 550Q430 550 483 516T565 423T594 293Z" />
<glyph unicode="&#xff;" glyph-name="ydieresis" horiz-adv-x="594" d="M601 521Q601 507 587 507T563 506Q550 506 542 498T529 478Q490 394 450 311T372 144Q347 86 320 28T263 -88Q255 -104 247 -120T228 -154Q210 -182 184 -194T125 -207Q91 -207 64 -187T37
-129Q37 -106 54 -92T94 -77Q105 -77 113 -81Q112 -109 122 -120T160 -132Q169 -132 178 -128T194 -118Q203 -111 215 -94T238 -57T251 -26Q252 -21 253 -15T254 -4Q254 25 240 70T206 167T165 263T133 339Q120 373 106 407T71 472Q60 489 46 491T13 493Q9 493
5 496T0 504Q0 518 13 521Q41 526 71 528T130 535Q141 537 151 538T172 539Q186 539 191 534T200 517Q214 487 225 456T248 393Q269 334 292 274T334 153Q342 171 357 207T391 288T427 377T455 455T466 504Q466 509 460 509T451 510Q441 510 431 510T409 509Q401
509 395 511T389 523Q389 535 395 536T410 537Q454 537 498 537T586 538Q601 538 601 521ZM251 695Q251 671 231 655T187 638Q165 638 144 654T123 695Q123 719 144 735T187 752Q210 752 230 736T251 695ZM471 695Q471 671 451 655T407 638Q384 638 364 654T343
695Q343 719 363 735T407 752Q430 752 450 736T471 695Z" />
<glyph unicode="&#x2013;" glyph-name="endash" horiz-adv-x="500" d="M500 323H-1V375H500V323Z" />
<glyph unicode="&#x2014;" glyph-name="emdash" horiz-adv-x="1000" d="M1000 323H-1V375H1000V323Z" />
<glyph unicode="&#x2018;" glyph-name="quoteleft" horiz-adv-x="390" d="M271 588Q271 554 251 534T197 513Q155 513 137 540T119 605Q119 635 132 671T165 741T206 795L231 787Q214 758 201 718T185 644Q196 651 210 651Q234 651 252 632T271 588Z" />
<glyph unicode="&#x2019;" glyph-name="quoteright" horiz-adv-x="390" d="M270 681Q270 652 257 616T225 546T184 491L158 499Q175 528 189 568T204 642Q194 635 179 635Q155 635 137 654T118 698Q118 732 138 752T192 773Q235 773 252 746T270 681Z" />
<glyph unicode="&#x201a;" glyph-name="quotesinglbase" horiz-adv-x="350" d="M251 61Q251 31 239 -5T207 -75T166 -129L141 -121Q158 -92 172 -53T187 21Q181 17 175 16T162 15Q138 15 120 34T101 78Q101 112 121 132T175 153Q218 153 234 126T251 61Z" />
<glyph unicode="&#x201c;" glyph-name="quotedblleft" horiz-adv-x="428" d="M208 591Q208 556 187 534T130 511Q87 511 70 538T53 603Q53 632 65 668T97 737T138 789L167 780Q156 763 146 738T130 686T124 639Q132 644 140 645T158 647Q177 647 192 629T208 591ZM376
591Q376 556 355 534T298 511Q255 511 238 538T221 603Q221 632 233 668T265 737T306 789L335 780Q324 763 314 738T298 686T292 639Q300 644 308 645T326 647Q345 647 360 629T376 591Z" />
<glyph unicode="&#x201d;" glyph-name="quotedblright" horiz-adv-x="428" d="M204 684Q204 655 192 619T161 549T120 494L94 503Q111 532 125 571T140 645Q135 641 129 640T115 639Q91 639 73 658T54 701Q54 735 74 755T128 776Q171 776 187 749T204 684ZM373
684Q373 655 361 619T330 549T289 494L263 503Q280 532 294 571T309 645Q304 641 298 640T284 639Q260 639 242 658T223 701Q223 735 243 755T297 776Q340 776 356 749T373 684Z" />
<glyph unicode="&#x201e;" glyph-name="quotedblbase" horiz-adv-x="428" d="M204 59Q204 30 192 -6T161 -76T120 -131L94 -123Q111 -94 125 -54T140 20Q130 13 115 13Q91 13 73 32T54 76Q54 110 74 130T128 151Q171 151 187 124T204 59ZM373 59Q373 30 361 -6T330
-76T289 -131L263 -123Q280 -94 294 -54T309 20Q299 13 284 13Q260 13 242 32T223 76Q223 110 243 130T297 151Q340 151 356 124T373 59Z" />
<glyph unicode="&#x2022;" glyph-name="bullet" horiz-adv-x="560" d="M397 375Q397 326 363 293T280 260Q248 260 222 275T179 316T163 375Q163 408 179 434T221 475T280 490Q329 490 363 457T397 375Z" />
<glyph unicode="&#x2039;" glyph-name="guilsinglleft" horiz-adv-x="300" d="M274 442L104 250L274 56H186L29 250L186 442H274Z" />
<glyph unicode="&#x203a;" glyph-name="guilsinglright" horiz-adv-x="300" d="M271 265L114 71H26L196 265L26 457H114L271 265Z" />
</font>
</defs>
</svg>
